<?xml version="1.0" standalone="no"?>
<!DOCTYPE svg PUBLIC "-//W3C//DTD SVG 20010904//EN"
 "http://www.w3.org/TR/2001/REC-SVG-20010904/DTD/svg10.dtd">
<svg version="1.0" xmlns="http://www.w3.org/2000/svg"
 width="2560.000000pt" height="1920.000000pt" viewBox="0 0 2560.000000 1920.000000"
 preserveAspectRatio="xMidYMid meet">

<g transform="translate(0.000000,1920.000000) scale(0.100000,-0.100000)"
fill="#000000" stroke="none">
<path d="M0 9600 l0 -9600 12800 0 12800 0 0 9600 0 9600 -12800 0 -12800 0 0
-9600z m1093 9503 c10 -6 9 -41 -3 -64 -14 -25 -35 -24 -54 3 -15 21 -16 21
-35 4 -37 -33 -74 3 -52 50 11 24 14 25 74 18 34 -4 65 -9 70 -11z m-179 -134
c3 -17 6 -50 6 -73 0 -48 14 -77 23 -52 7 18 52 22 62 6 3 -5 26 -10 51 -10
41 0 44 -2 44 -28 0 -15 -7 -38 -16 -51 l-16 -22 -25 22 c-20 20 -27 21 -43
11 -11 -7 -31 -12 -44 -12 -19 0 -26 6 -29 28 -2 15 -5 -99 -6 -253 -2 -304
-6 -329 -50 -305 -21 11 -21 14 -18 363 2 194 5 359 8 367 15 49 44 54 53 9z
m890 -218 c3 -5 6 -116 7 -246 1 -205 -1 -239 -15 -253 -13 -13 -18 -14 -28
-4 -18 18 -25 477 -7 498 13 16 35 19 43 5z m357 -183 c4 -472 5 -453 -12
-471 -15 -15 -18 -15 -33 2 -14 15 -16 55 -16 308 0 159 3 293 7 296 3 4 17 7
30 7 23 0 23 0 24 -142z m520 -105 c1 -104 2 -234 4 -290 3 -90 1 -106 -16
-125 -19 -23 -19 -23 -34 -4 -13 17 -15 67 -15 306 0 158 3 290 7 293 3 4 17
7 30 7 l23 0 1 -187z m163 160 c4 -5 27 -8 49 -8 37 0 42 -3 44 -25 2 -14 -4
-33 -11 -43 -20 -26 -56 -14 -56 19 0 29 -16 32 -23 4 -7 -26 -36 -37 -48 -19
-10 17 -12 63 -2 72 9 9 38 9 47 0z m1496 -97 c1 -33 3 -177 6 -319 6 -264 3
-287 -32 -287 -21 0 -23 23 -27 348 -3 248 -1 306 10 317 27 28 43 6 43 -59z
m-746 -6 c33 -12 33 -31 1 -67 -21 -24 -26 -26 -35 -13 -16 24 -12 90 6 90 1
0 14 -4 28 -10z m-571 -242 c6 -270 0 -306 -43 -278 -12 8 -16 48 -18 242 -2
128 0 243 3 255 4 16 13 23 29 23 l23 0 6 -242z m667 227 c9 -11 16 -12 30 -3
9 6 25 8 34 5 21 -8 21 -60 0 -78 -14 -11 -19 -9 -36 14 l-20 27 -18 -22 c-15
-19 -20 -20 -34 -9 -16 13 -22 62 -9 74 11 12 40 8 53 -8z m1440 -55 c0 -19
-7 -33 -20 -40 -17 -9 -20 -7 -26 15 -8 34 1 55 26 55 16 0 20 -7 20 -30z
m-1614 -50 c-3 -8 0 -28 7 -43 18 -42 5 -284 -16 -305 -15 -14 -17 -13 -26 10
-12 32 -18 282 -8 323 5 21 14 31 27 31 13 0 18 -6 16 -16z m944 6 c30 -3 35
-7 38 -30 2 -14 -3 -33 -11 -41 -13 -12 -17 -12 -31 4 -9 10 -16 26 -16 37 0
16 -2 15 -13 -6 -7 -14 -22 -26 -33 -28 -17 -2 -23 4 -28 29 -8 41 0 52 33 44
14 -4 42 -8 61 -9z m673 -122 c2 -14 5 -139 6 -278 2 -208 0 -255 -12 -264
-11 -10 -17 -9 -25 0 -11 15 -28 539 -18 557 13 21 43 12 49 -15z m-3229 -71
c4 -5 24 -8 44 -8 33 0 37 -3 40 -27 4 -32 -13 -68 -32 -68 -8 0 -20 10 -29
23 -14 21 -15 21 -34 5 -34 -31 -53 -17 -53 36 0 36 41 61 64 39z m4070 -39
c8 -20 -12 -56 -27 -51 -7 2 -13 18 -15 35 -3 26 0 32 16 32 11 0 23 -7 26
-16z m79 -6 c7 -23 -5 -48 -24 -48 -22 0 -34 22 -25 45 7 18 43 20 49 3z m67
-34 c0 -39 -22 -47 -40 -13 -15 27 -8 44 19 46 18 2 21 -4 21 -33z m-220 -97
c0 -70 -3 -84 -19 -94 -17 -10 -19 -8 -25 25 -8 49 -8 137 1 145 3 4 15 7 25
7 16 0 18 -9 18 -83z m726 55 c7 -5 13 -98 17 -280 l5 -273 -21 3 c-22 3 -22
7 -30 267 -5 145 -6 270 -3 277 6 16 16 17 32 6z m-428 -101 c-2 -54 -7 -75
-15 -73 -9 1 -13 -12 -13 -39 0 -32 3 -40 15 -35 10 4 15 -1 16 -17 1 -12 3
-45 4 -73 4 -56 -6 -80 -27 -71 -12 4 -16 43 -21 193 -3 103 -4 190 -2 195 3
4 14 5 25 2 19 -5 21 -12 18 -82z m580 46 c3 -22 -1 -27 -17 -27 -17 0 -21 6
-21 31 0 24 4 30 18 27 10 -2 18 -14 20 -31z m72 -5 c0 -34 -7 -43 -26 -35
-14 5 -19 44 -7 56 16 16 33 5 33 -21z m-3246 -18 c22 -8 20 -57 -3 -78 -15
-14 -20 -14 -29 -3 -12 14 -16 38 -14 70 2 17 18 22 46 11z m152 -24 c20 0 24
-5 24 -27 0 -16 -8 -37 -16 -48 -15 -20 -15 -20 -30 -1 -8 11 -14 28 -14 39 0
15 -5 13 -26 -12 -32 -38 -38 -39 -54 -1 -20 49 -8 64 47 56 25 -3 56 -6 69
-6z m3162 -33 c12 -14 20 -443 8 -454 -3 -4 -13 0 -20 8 -10 10 -15 69 -20
230 -4 118 -3 218 0 222 11 10 20 9 32 -6z m1773 -322 c4 -160 5 -292 3 -294
-2 -2 -10 -1 -19 2 -13 6 -15 40 -15 250 0 134 -3 266 -6 292 -6 43 -5 47 12
43 18 -3 19 -19 25 -293z m-4262 266 c20 -13 0 -65 -26 -69 -15 -2 -22 4 -25
22 -9 44 18 68 51 47z m79 -34 c2 -16 -2 -35 -9 -43 -10 -13 -14 -12 -30 2
-19 17 -25 54 -12 68 17 17 48 0 51 -27z m1394 8 c9 -30 9 -128 -1 -144 -5 -8
-16 -11 -25 -8 -13 5 -16 23 -16 92 0 76 2 86 18 83 9 -2 20 -12 24 -23z
m2198 -35 c0 -24 -15 -33 -27 -17 -8 10 -9 23 -4 42 3 13 31 -10 31 -25z m64
-3 c8 -13 7 -20 -4 -27 -20 -12 -30 -3 -30 26 0 28 17 28 34 1z m64 -20 c3
-28 -6 -35 -25 -16 -13 13 -5 51 11 46 6 -2 12 -16 14 -30z m-196 -29 c3 -7 2
-39 -1 -70 -6 -53 -7 -56 -24 -43 -16 11 -18 22 -12 69 5 35 12 56 20 56 7 0
15 -6 17 -12z m728 -49 c0 -20 -24 -26 -35 -9 -4 6 -4 17 -1 25 7 20 36 7 36
-16z m55 -27 c-6 -16 -7 -16 -16 1 -8 13 -7 23 3 34 12 15 13 15 16 -1 2 -9 1
-25 -3 -34z m-2835 -22 c15 0 18 -49 3 -54 -33 -13 -43 -6 -43 30 0 29 3 35
16 30 9 -3 19 -6 24 -6z m80 -26 c11 -28 -3 -48 -28 -40 -22 7 -36 53 -18 60
21 9 39 1 46 -20z m3260 -10 c0 -13 -4 -24 -9 -24 -11 0 -22 40 -15 52 9 15
24 -2 24 -28z m-3188 -20 c-5 -26 -21 -31 -40 -12 -19 19 -14 38 11 47 26 10
36 -1 29 -35z m3254 0 c-3 -8 -10 -14 -16 -14 -11 0 -14 43 -3 54 10 10 26
-23 19 -40z m62 3 c4 -29 -12 -37 -22 -11 -10 26 -7 46 7 42 6 -3 13 -17 15
-31z m62 -13 c0 -26 -17 -33 -26 -9 -8 20 3 48 16 40 5 -3 10 -17 10 -31z
m1013 -31 c3 -32 6 -158 7 -280 1 -194 -1 -223 -15 -223 -13 0 -15 35 -15 280
0 154 4 280 9 280 4 0 11 -26 14 -57z m-2423 12 c0 -27 -9 -32 -27 -14 -14 14
-6 39 13 39 8 0 14 -10 14 -25z m70 -4 c0 -25 -20 -38 -31 -20 -15 23 -10 39
11 39 13 0 20 -7 20 -19z m70 -17 c0 -26 -1 -27 -24 -18 -16 6 -22 35 -10 47
12 12 34 -6 34 -29z m1700 -247 c0 -187 -3 -238 -12 -235 -10 4 -14 62 -16
239 -1 128 0 240 3 249 17 43 25 -36 25 -253z m-365 27 c4 -132 3 -210 -3
-216 -6 -6 -12 -6 -17 2 -9 15 -19 362 -11 394 15 62 24 12 31 -180z m477 194
c6 -17 -1 -38 -13 -38 -5 0 -9 11 -9 25 0 26 14 34 22 13z m58 -19 c0 -17 -4
-28 -10 -24 -5 3 -10 17 -10 31 0 13 5 24 10 24 6 0 10 -14 10 -31z m1507 -11
c-3 -8 -6 -5 -6 6 -1 11 2 17 5 13 3 -3 4 -12 1 -19z m-3319 -36 c3 -25 0 -31
-12 -26 -10 4 -16 18 -16 36 0 40 24 32 28 -10z m1090 6 c-5 -32 -28 -35 -28
-4 0 17 5 26 16 26 10 0 14 -7 12 -22z m62 -17 c-1 -34 -2 -35 -15 -17 -19 26
-19 53 0 53 11 0 15 -11 15 -36z m60 -7 c0 -13 -4 -24 -10 -24 -5 0 -10 14
-10 31 0 17 4 28 10 24 6 -3 10 -17 10 -31z m1067 -21 c-4 -17 -4 -17 -12 0
-4 9 -4 25 0 35 8 16 8 16 12 0 3 -10 3 -26 0 -35z m63 12 c0 -14 -4 -25 -9
-25 -12 0 -19 21 -13 38 8 21 22 13 22 -13z m-1316 -21 c3 -9 6 -56 6 -105 0
-72 -3 -89 -15 -89 -12 0 -15 18 -15 105 0 97 9 129 24 89z m-1288 -49 c4 -8
3 -22 0 -31 -5 -13 -9 -14 -21 -4 -8 7 -15 21 -15 31 0 23 28 25 36 4z m72
-23 c3 -19 -1 -23 -15 -20 -10 2 -19 14 -21 26 -3 19 1 23 15 20 10 -2 19 -14
21 -26z m60 1 c5 -10 7 -24 5 -31 -4 -10 -9 -10 -23 3 -10 9 -16 23 -13 31 7
19 20 18 31 -3z m72 -29 c0 -27 -24 -33 -34 -8 -7 19 12 47 25 38 5 -3 9 -16
9 -30z m520 -65 c0 -38 -24 -35 -28 4 -2 19 1 27 12 27 11 0 16 -10 16 -31z
m62 -4 c3 -13 3 -27 0 -29 -7 -8 -32 21 -32 38 0 26 27 18 32 -9z m568 -80 c0
-22 -19 -38 -21 -17 0 4 -2 15 -4 25 -2 9 3 17 11 17 8 0 14 -10 14 -25z m60
-11 c0 -13 -4 -24 -9 -24 -11 0 -19 30 -14 48 7 20 23 3 23 -24z m1136 -149
c1 -15 -3 -25 -12 -25 -8 0 -14 10 -14 25 0 33 25 33 26 0z m54 -5 c0 -16 -4
-30 -9 -30 -14 0 -20 37 -8 49 16 16 17 14 17 -19z m-6320 -1355 c0 -33 -5
-47 -16 -52 -23 -9 -44 23 -44 64 0 30 3 33 30 33 29 0 30 -2 30 -45z m405 5
c3 -5 3 -26 -1 -45 -5 -29 -10 -36 -28 -33 -23 3 -43 46 -33 72 7 17 52 22 62
6z m617 -46 c94 -7 108 -17 93 -65 -5 -16 -12 -19 -28 -14 -20 5 -69 11 -187
19 -66 5 -80 14 -80 48 l0 30 58 -6 c31 -3 96 -8 144 -12z m2058 -96 c0 -40 5
-80 10 -88 6 -9 10 -10 10 -3 0 8 9 9 35 2 20 -6 46 -9 58 -7 18 3 23 -2 25
-31 3 -29 1 -33 -15 -26 -10 5 -33 9 -51 9 -21 1 -39 8 -48 20 -17 24 -16 46
-14 -211 1 -105 -3 -194 -8 -197 -5 -3 -16 0 -25 7 -13 10 -16 57 -21 305 l-7
292 26 0 c24 0 25 -2 25 -72z m-2991 -70 c1 -72 -7 -86 -37 -67 -14 9 -22 29
-26 70 -7 61 4 96 34 101 20 5 28 -23 29 -104z m1564 -157 c7 -220 6 -266 -5
-278 -12 -12 -17 -10 -34 8 -17 19 -19 42 -24 258 -6 287 -7 283 28 279 l27
-3 8 -264z m211 239 c5 -5 6 -21 2 -35 -5 -21 -11 -25 -24 -19 -9 4 -32 7 -50
6 -40 -2 -60 14 -54 46 4 22 7 23 61 16 31 -3 60 -10 65 -14z m2799 -357 c3
-197 2 -362 -2 -366 -24 -24 -29 34 -33 353 -3 184 -3 343 0 352 2 10 10 18
17 18 9 0 13 -85 18 -357z m-3468 325 c3 -13 4 -122 3 -243 -3 -214 -4 -220
-23 -217 -29 4 -56 40 -47 60 5 10 6 74 4 143 l-4 127 -44 6 c-24 3 -50 3 -59
0 -8 -4 -21 -1 -29 5 -7 6 -26 8 -42 5 -25 -5 -32 -1 -43 19 -25 46 -14 51
105 52 l109 0 3 33 c3 28 7 32 32 32 22 0 31 -6 35 -22z m-865 -63 c0 -50 -4
-67 -15 -72 -38 -14 -63 105 -27 126 36 21 42 13 42 -54z m1357 3 c-3 -8 -6
-5 -6 6 -1 11 2 17 5 13 3 -3 4 -12 1 -19z m33 -3 c0 -8 -4 -17 -10 -20 -6 -4
-10 5 -10 20 0 15 4 24 10 20 6 -3 10 -12 10 -20z m-832 -174 c1 -63 -1 -118
-6 -123 -5 -5 -18 -1 -31 9 -19 15 -23 31 -28 110 -7 110 -3 125 34 121 l28
-3 3 -114z m2930 110 c17 -11 12 -56 -7 -56 -19 0 -36 29 -28 49 7 18 16 20
35 7z m75 -20 c6 -26 -7 -45 -27 -38 -23 9 -21 57 3 57 10 0 21 -9 24 -19z
m60 -29 c-7 -28 -21 -28 -32 1 -7 16 -5 25 7 35 20 16 34 -4 25 -36z m521 -18
c6 -17 -3 -44 -15 -44 -13 0 -31 40 -25 56 6 16 32 9 40 -12z m64 -17 c2 -19
-1 -27 -13 -27 -19 0 -30 24 -21 46 9 23 31 11 34 -19z m62 -3 c0 -17 -6 -24
-20 -24 -20 0 -25 15 -14 44 8 22 34 8 34 -20z m-4387 -29 l37 0 0 -67 c0 -37
-4 -69 -9 -72 -11 -7 -36 22 -37 43 -3 43 -5 51 -12 51 -5 0 -15 -11 -22 -25
l-13 -25 -24 22 c-32 30 -30 72 5 104 l27 26 5 -28 c5 -26 10 -29 43 -29z
m3549 -138 c3 -176 0 -195 -30 -165 -16 16 -15 122 1 166 10 28 10 36 0 39 -9
3 -13 27 -13 73 0 46 4 70 13 73 6 2 15 2 19 -2 3 -3 8 -86 10 -184z m259 -16
c3 -126 1 -175 -8 -178 -21 -7 -26 34 -22 182 0 22 -3 69 -7 103 -5 50 -4 66
7 73 8 4 17 5 20 1 4 -4 8 -85 10 -181z m1014 169 c9 -15 -5 -52 -18 -47 -17
5 -17 57 -1 57 7 0 16 -5 19 -10z m65 -25 c0 -25 -23 -35 -35 -15 -10 16 2 40
20 40 9 0 15 -9 15 -25z m55 -5 c0 -13 -5 -25 -11 -27 -13 -4 -26 35 -18 49
10 16 29 2 29 -22z m65 -5 c0 -16 -6 -25 -15 -25 -8 0 -15 4 -15 9 0 5 -3 16
-6 25 -4 12 0 16 15 16 16 0 21 -6 21 -25z m-810 -176 c0 -109 -4 -169 -10
-169 -16 0 -19 16 -24 145 -4 116 8 210 26 199 4 -3 8 -81 8 -175z m870 -90
c0 -164 -3 -210 -12 -207 -10 4 -14 58 -18 209 -5 192 -1 227 22 213 4 -3 8
-100 8 -215z m356 75 c-4 -13 -11 -24 -17 -24 -11 0 -11 104 0 125 8 16 23
-75 17 -101z m-4596 71 c12 -8 13 -45 1 -64 -8 -12 -12 -12 -25 -2 -10 9 -28
11 -47 7 -19 -3 -38 -1 -45 5 -17 14 -18 55 -1 63 14 7 103 0 117 -9z m4060
-14 c0 -19 -17 -38 -26 -28 -3 2 -6 14 -9 26 -3 16 1 21 16 21 12 0 19 -7 19
-19z m58 -8 c-4 -34 -20 -32 -30 2 -5 20 -3 25 14 25 15 0 19 -6 16 -27z m60
-6 c2 -19 -1 -27 -12 -27 -11 0 -16 10 -16 31 0 38 24 35 28 -4z m594 -75 c-2
-28 -8 -52 -13 -52 -10 0 -12 100 -2 126 11 30 21 -15 15 -74z m-774 -52 c2
-54 -1 -97 -7 -103 -17 -17 -21 -4 -22 84 -1 117 -1 121 14 117 8 -3 13 -34
15 -98z m4760 -245 c-2 -162 -6 -219 -15 -222 -10 -4 -11 54 -7 264 3 147 8
275 12 283 10 22 13 -80 10 -325z m52 313 c0 -7 -4 -19 -9 -27 -11 -17 -23 1
-15 23 7 19 24 21 24 4z m45 -5 c-2 -10 -4 -21 -4 -25 -1 -5 -5 -8 -11 -8 -11
0 -14 33 -3 43 12 13 21 7 18 -10z m45 -7 c0 -8 -4 -18 -10 -21 -5 -3 -10 3
-10 14 0 12 5 21 10 21 6 0 10 -6 10 -14z m31 -99 c-8 -8 -11 -4 -11 14 0 33
14 47 18 19 2 -12 -1 -27 -7 -33z m719 -177 c-1 -130 -5 -232 -11 -235 -5 -4
-9 86 -9 229 0 156 4 236 10 236 7 0 10 -78 10 -230z m-7460 191 c0 -28 -1
-29 -42 -24 -61 7 -68 10 -68 33 0 18 6 20 55 20 54 0 55 -1 55 -29z m605 -41
c0 -38 -39 -35 -43 3 -3 25 0 28 20 25 17 -2 23 -9 23 -28z m63 18 c22 -22 14
-48 -13 -48 -21 0 -25 5 -25 30 0 31 17 39 38 18z m1800 -54 c-2 -27 -7 -49
-13 -49 -11 0 -19 79 -10 103 11 30 26 -5 23 -54z m-1738 26 c0 -32 -9 -37
-28 -18 -19 19 -15 48 8 48 16 0 20 -7 20 -30z m6070 -114 c0 -135 -4 -166
-22 -166 -5 0 -7 54 -4 138 3 75 5 143 6 150 0 6 5 12 10 12 6 0 10 -51 10
-134z m-5550 83 c0 -24 -4 -30 -17 -27 -11 2 -19 14 -21 31 -3 22 1 27 17 27
17 0 21 -6 21 -31z m1273 -41 l-10 -33 -8 28 c-4 15 -4 39 0 55 7 27 7 27 18
5 7 -16 7 -33 0 -55z m4488 39 c-8 -8 -11 -7 -11 4 0 9 3 19 7 23 4 4 9 2 11
-4 3 -7 -1 -17 -7 -23z m59 13 c0 -11 -6 -20 -14 -20 -12 0 -14 14 -7 38 1 1
6 2 11 2 6 0 10 -9 10 -20z m40 1 c0 -11 -4 -23 -10 -26 -6 -4 -10 5 -10 19 0
14 5 26 10 26 6 0 10 -9 10 -19z m42 -16 c-11 -21 -25 -4 -16 20 4 10 10 13
16 7 7 -7 7 -16 0 -27z m-5842 -5 c0 -35 -17 -40 -29 -7 -10 26 -6 37 15 37 9
0 14 -11 14 -30z m6200 -4 c0 -16 -18 -31 -27 -22 -8 8 5 36 17 36 5 0 10 -6
10 -14z m40 -5 c0 -6 -4 -13 -10 -16 -5 -3 -10 1 -10 9 0 9 5 16 10 16 6 0 10
-4 10 -9z m-5680 -25 c0 -31 -16 -42 -28 -19 -12 22 -5 43 14 43 8 0 14 -10
14 -24z m58 -1 c-2 -14 -7 -26 -13 -26 -5 0 -11 12 -13 26 -2 18 1 25 13 25
12 0 15 -7 13 -25z m5999 -17 c-3 -7 -5 -2 -5 12 0 14 2 19 5 13 2 -7 2 -19 0
-25z m-730 -149 c-4 -109 -10 -176 -17 -183 -9 -8 -11 34 -7 169 6 208 4 185
18 185 9 0 10 -46 6 -171z m783 162 c0 -5 -7 -11 -15 -15 -15 -5 -20 5 -8 17
9 10 23 9 23 -2z m34 -6 c-4 -8 -8 -15 -10 -15 -2 0 -4 7 -4 15 0 8 4 15 10
15 5 0 7 -7 4 -15z m-946 -57 c-2 -12 -9 -23 -16 -26 -10 -3 -11 16 -3 46 1 1
6 2 12 2 6 0 9 -10 7 -22z m-4599 -95 c1 -41 -2 -53 -14 -53 -17 0 -20 54 -8
125 l7 40 7 -30 c4 -16 7 -54 8 -82z m4641 87 c0 -11 -4 -20 -10 -20 -5 0 -10
9 -10 20 0 11 5 20 10 20 6 0 10 -9 10 -20z m50 12 c0 -5 -7 -17 -15 -28 -14
-19 -14 -19 -15 2 0 11 3 24 7 27 9 10 23 9 23 -1z m887 -39 c-3 -10 -5 -2 -5
17 0 19 2 27 5 18 2 -10 2 -26 0 -35z m-165 -62 c0 -50 -2 -94 -6 -98 -3 -3
-6 40 -6 97 0 57 2 101 5 98 3 -3 6 -46 7 -97z m-872 -115 c-7 -7 -10 16 -10
75 0 111 14 125 18 18 2 -48 -2 -87 -8 -93z m1037 92 c-2 -13 -4 -5 -4 17 -1
22 1 32 4 23 2 -10 2 -28 0 -40z m-124 2 c-3 -12 -8 -19 -11 -16 -5 6 5 36 12
36 2 0 2 -9 -1 -20z m83 -16 c-4 -9 -9 -15 -11 -12 -3 3 -3 13 1 22 4 9 9 15
11 12 3 -3 3 -13 -1 -22z m-31 6 c-3 -5 -11 -10 -16 -10 -6 0 -7 5 -4 10 3 6
11 10 16 10 6 0 7 -4 4 -10z m-1234 -53 c-16 -16 -26 0 -10 19 9 11 15 12 17
4 2 -6 -1 -17 -7 -23z m-131 -42 c0 -14 -4 -25 -10 -25 -11 0 -14 33 -3 43 11
11 13 8 13 -18z m50 1 c0 -24 -16 -43 -27 -32 -8 8 6 56 17 56 6 0 10 -11 10
-24z m31 -29 c-8 -8 -11 -4 -11 14 0 33 14 47 18 19 2 -12 -1 -27 -7 -33z
m360 -20 c-13 -13 -15 1 -4 30 7 17 8 17 11 -1 2 -10 -1 -23 -7 -29z m59 24
c0 -5 -7 -14 -15 -21 -13 -10 -15 -9 -15 9 0 12 6 21 15 21 8 0 15 -4 15 -9z
m386 -38 c-10 -10 -19 5 -10 18 6 11 8 11 12 0 2 -7 1 -15 -2 -18z m44 8 c0
-6 -4 -13 -10 -16 -5 -3 -10 1 -10 9 0 9 5 16 10 16 6 0 10 -4 10 -9z m377
-33 c-3 -8 -6 -5 -6 6 -1 11 2 17 5 13 3 -3 4 -12 1 -19z m84 -1 c-10 -9 -11
-8 -5 6 3 10 9 15 12 12 3 -3 0 -11 -7 -18z m-8127 -109 c9 -156 10 -627 2
-635 -4 -4 -14 -3 -23 3 -20 13 -20 16 -27 427 l-5 317 23 0 c23 0 23 -3 30
-112z m-3064 -18 c0 -45 -3 -60 -14 -60 -20 0 -56 53 -56 82 0 32 7 38 42 38
28 0 28 -1 28 -60z m400 -20 l0 -60 -30 26 c-16 15 -32 35 -36 46 -8 25 13 48
42 48 23 0 24 -3 24 -60z m700 15 c5 -3 10 -19 10 -34 l0 -29 -135 3 c-143 2
-165 9 -165 50 0 12 2 24 4 26 7 6 274 -8 286 -16z m534 -26 c11 -11 18 -537
7 -544 -6 -3 -21 1 -34 10 -24 15 -24 17 -31 263 -4 137 -4 255 -1 263 5 14
47 20 59 8z m204 -9 c19 0 22 -5 22 -36 0 -33 -2 -36 -22 -30 -13 3 -39 6 -60
6 -31 0 -37 4 -46 29 -13 36 -3 42 48 36 19 -3 45 -5 58 -5z m-1751 -109 c3
-38 3 -81 -1 -95 -14 -56 -60 -16 -69 62 -5 41 -2 55 13 75 11 13 16 28 12 32
-4 5 -1 5 6 1 8 -5 12 -1 12 11 1 17 1 17 11 0 6 -9 13 -48 16 -86z m5513 57
c1 -13 3 -130 6 -261 6 -231 2 -299 -16 -281 -9 10 -24 540 -15 555 11 17 25
9 25 -13z m1360 -312 c0 -186 -4 -337 -9 -340 -16 -10 -20 36 -16 174 3 74 4
217 5 318 0 114 4 182 10 182 6 0 10 -118 10 -334z m-5776 307 c11 -41 18
-451 7 -457 -6 -4 -29 -1 -51 5 -36 11 -40 15 -34 33 11 29 17 276 7 276 -4 1
-39 5 -78 10 -44 5 -74 5 -81 -1 -28 -23 -78 19 -65 54 8 20 16 22 102 23 132
0 129 0 129 33 0 28 10 36 47 40 6 0 14 -7 17 -16z m2086 -42 c0 -34 -9 -44
-27 -30 -7 6 -22 9 -32 6 -26 -6 -56 16 -48 36 4 11 20 15 56 15 49 1 51 0 51
-27z m-1560 -6 c0 -16 -6 -25 -15 -25 -15 0 -21 31 -8 43 13 14 23 6 23 -18z
m-1385 -39 c7 -55 1 -96 -15 -96 -5 0 -18 9 -28 20 -27 29 -26 96 2 115 31 22
34 20 41 -39z m3018 -221 c4 -115 3 -216 -1 -222 -7 -10 -12 -10 -27 1 -17 12
-19 32 -23 224 -4 199 -3 210 14 214 11 3 22 2 25 -1 4 -3 9 -100 12 -216z
m-2461 124 c3 -30 6 -87 7 -126 1 -63 -1 -73 -16 -73 -10 0 -27 7 -37 15 -16
12 -20 31 -24 120 -5 103 -4 105 19 114 37 15 44 8 51 -50z m4655 29 c-3 -7
-5 -2 -5 12 0 14 2 19 5 13 2 -7 2 -19 0 -25z m123 2 c0 -16 -5 -30 -10 -30
-14 0 -24 26 -16 45 10 26 26 16 26 -15z m58 -2 c-3 -34 -20 -42 -26 -13 -5
22 5 45 18 45 7 0 10 -14 8 -32z m522 -18 c0 -20 -5 -30 -15 -30 -16 0 -19 17
-9 44 10 26 24 18 24 -14z m60 -6 c0 -15 -6 -24 -15 -24 -15 0 -21 40 -9 53
12 11 24 -3 24 -29z m50 0 c0 -30 -2 -34 -14 -25 -15 12 -16 28 -3 49 13 20
17 14 17 -24z m450 -19 c0 -27 -15 -41 -25 -25 -10 16 4 62 15 55 6 -3 10 -17
10 -30z m50 0 c0 -34 -13 -47 -23 -22 -5 13 9 57 18 57 3 0 5 -16 5 -35z
m2900 -198 c0 -185 -3 -237 -14 -252 -12 -17 -14 12 -10 223 3 221 6 262 20
262 2 0 4 -105 4 -233z m-2845 184 c-3 -12 -11 -21 -16 -21 -10 0 -12 43 -2
54 12 12 25 -11 18 -33z m378 -12 c-3 -11 -9 -22 -14 -25 -10 -6 -12 49 -2 59
10 11 21 -13 16 -34z m57 6 c0 -23 -16 -42 -27 -32 -3 3 -2 19 2 36 8 35 25
32 25 -4z m50 -5 c0 -16 -4 -30 -10 -30 -5 0 -10 14 -10 30 0 17 5 30 10 30 6
0 10 -13 10 -30z m52 -5 c-2 -14 -8 -25 -13 -25 -10 0 -12 43 -3 53 13 12 21
-3 16 -28z m2753 -442 c-4 -29 -11 -53 -16 -53 -11 0 -2 494 9 520 9 20 15
-399 7 -467z m220 20 c-4 -46 -11 -83 -16 -83 -10 0 -1 506 9 530 10 21 15
-346 7 -447z m-4235 267 c0 -200 -17 -234 -22 -42 -4 152 0 212 13 212 5 0 9
-70 9 -170z m1570 150 c0 -11 -4 -20 -9 -20 -5 0 -7 9 -4 20 3 11 7 20 9 20 2
0 4 -9 4 -20z m-1342 -155 c-4 -207 -22 -222 -25 -20 -2 150 1 185 17 185 7 0
9 -59 8 -165z m-6238 135 c8 -14 21 -20 45 -20 l35 0 0 -74 c0 -41 -4 -77 -9
-80 -4 -3 -16 3 -26 14 -10 11 -28 20 -41 20 -14 0 -33 13 -50 35 -21 28 -25
41 -20 70 6 30 26 54 48 55 4 0 12 -9 18 -20z m7840 -13 c0 -5 -4 -5 -10 -2
-5 3 -10 14 -10 23 0 15 2 15 10 2 5 -8 10 -19 10 -23z m-1270 -136 c0 -96 -4
-162 -10 -166 -7 -4 -10 52 -10 159 0 104 4 166 10 166 6 0 10 -60 10 -159z
m2120 125 c0 -24 -16 -43 -27 -32 -8 8 6 56 17 56 6 0 10 -11 10 -24z m45 -15
c-3 -12 -11 -21 -16 -21 -10 0 -12 43 -2 54 12 12 25 -11 18 -33z m90 -509
c-3 -13 -10 -20 -15 -17 -10 6 -2 544 8 560 8 12 15 -511 7 -543z m-1495 349
c0 -140 -3 -181 -15 -197 -13 -17 -14 2 -15 177 0 108 3 199 6 202 19 19 24
-20 24 -182z m1450 164 c0 -14 -4 -25 -10 -25 -5 0 -10 11 -10 25 0 14 5 25
10 25 6 0 10 -11 10 -25z m422 -37 c-15 -15 -21 4 -9 32 l10 25 5 -24 c2 -13
-1 -28 -6 -33z m53 30 c-10 -31 -25 -47 -25 -26 0 24 11 48 22 48 5 0 6 -10 3
-22z m-1616 -40 c-1 -29 -4 -66 -8 -83 l-7 -30 -7 32 c-8 38 2 133 14 133 5 0
8 -24 8 -52z m1521 27 c0 -14 -4 -25 -10 -25 -5 0 -10 11 -10 25 0 14 5 25 10
25 6 0 10 -11 10 -25z m465 -14 c-3 -12 -11 -21 -16 -21 -14 0 -11 38 4 43 17
6 20 2 12 -22z m45 4 c0 -14 -4 -25 -10 -25 -11 0 -14 33 -3 43 11 11 13 8 13
-18z m-1880 -75 c0 -38 -4 -72 -10 -75 -6 -4 -10 23 -10 75 0 52 4 79 10 75 6
-3 10 -37 10 -75z m-620 51 c0 -26 -10 -51 -21 -51 -10 0 -12 31 -3 54 9 22
24 20 24 -3z m50 -11 c0 -30 -13 -40 -25 -20 -8 13 4 50 16 50 5 0 9 -13 9
-30z m1420 -109 c0 -139 -4 -171 -21 -171 -10 0 -12 158 -3 249 12 107 24 66
24 -78z m-1370 105 c0 -14 -4 -28 -10 -31 -6 -4 -10 7 -10 24 0 17 5 31 10 31
6 0 10 -11 10 -24z m1844 -171 c-3 -55 -10 -104 -15 -109 -11 -12 -12 246 -2
284 13 46 24 -67 17 -175z m1387 162 c-8 -8 -11 -7 -11 4 0 9 3 19 7 23 4 4 9
2 11 -4 3 -7 -1 -17 -7 -23z m52 8 c-3 -8 -9 -15 -14 -15 -10 0 -12 24 -3 33
11 11 24 -3 17 -18z m40 0 c-7 -21 -13 -19 -13 6 0 11 4 18 10 14 5 -3 7 -12
3 -20z m-1303 -159 c-7 -7 -10 16 -10 75 0 111 14 125 18 18 2 -48 -2 -87 -8
-93z m1769 32 c-3 -229 -16 -283 -17 -70 -1 122 2 192 8 192 6 0 10 -47 9
-122z m-10216 102 c31 0 42 -18 33 -55 -6 -23 -10 -24 -54 -19 -76 9 -86 12
-99 33 -19 31 10 55 56 47 20 -3 49 -6 64 -6z m9619 -147 c-2 -79 -7 -143 -12
-143 -10 0 -5 264 5 280 4 6 8 10 9 8 0 -2 0 -67 -2 -145z m835 85 c-2 -13 -4
-3 -4 22 0 25 2 35 4 23 2 -13 2 -33 0 -45z m-4184 -44 c-3 -124 -23 -135 -23
-13 0 90 4 114 19 105 4 -3 5 -44 4 -92z m3768 -126 c-7 -26 -9 -9 -10 79 -1
61 2 120 7 130 11 27 14 -171 3 -209z m-245 151 c-3 -34 -6 -97 -6 -140 0 -44
-4 -79 -8 -79 -5 0 -8 17 -6 38 2 20 3 83 3 140 1 69 5 102 12 102 8 0 10 -18
5 -61z m-575 -12 c-8 -8 -11 -5 -11 9 0 27 14 41 18 19 2 -9 -1 -22 -7 -28z
m59 24 c0 -19 -17 -38 -25 -29 -7 7 7 48 16 48 5 0 9 -9 9 -19z m40 -5 c0 -17
-14 -29 -23 -20 -8 8 3 34 14 34 5 0 9 -6 9 -14z m31 -29 c-8 -8 -11 -5 -11 9
0 27 14 41 18 19 2 -9 -1 -22 -7 -28z m-1031 -1 c0 -14 -4 -28 -10 -31 -6 -4
-10 7 -10 24 0 17 5 31 10 31 6 0 10 -11 10 -24z m50 7 c0 -10 -4 -24 -9 -32
-12 -19 -24 3 -16 29 8 25 25 26 25 3z m46 -9 c-3 -9 -6 -20 -6 -25 0 -5 -4
-9 -10 -9 -11 0 -14 33 -3 43 12 13 25 7 19 -9z m-1570 -174 c-1 -93 -5 -172
-8 -175 -11 -11 -16 60 -13 170 2 61 4 127 4 148 1 21 5 36 10 32 6 -3 9 -77
7 -175z m54 99 c0 -27 -4 -49 -9 -49 -15 0 -20 27 -12 57 4 15 6 34 3 42 -3 8
0 11 7 7 6 -4 11 -29 11 -57z m-2253 -37 c-16 -15 -17 -14 -17 14 0 39 12 51
24 24 7 -15 5 -25 -7 -38z m63 28 c0 -28 -13 -40 -24 -22 -7 12 5 52 15 52 5
0 9 -13 9 -30z m5750 -62 c0 -51 -4 -86 -8 -78 -8 15 -4 170 4 170 2 0 4 -42
4 -92z m-5230 43 c0 -32 -14 -49 -25 -31 -9 15 3 60 15 60 6 0 10 -13 10 -29z
m58 -3 c-3 -34 -20 -42 -26 -13 -5 22 5 45 18 45 7 0 10 -14 8 -32z m57 4 c-2
-9 -4 -20 -4 -24 -1 -5 -5 -8 -11 -8 -11 0 -14 43 -4 53 11 11 22 -2 19 -21z
m1982 -54 c-2 -18 -4 -6 -4 27 0 33 2 48 4 33 2 -15 2 -42 0 -60z m-1541 28
c-3 -14 -11 -26 -16 -26 -11 0 -13 30 -4 55 10 26 28 1 20 -29z m54 10 c0 -14
-4 -28 -10 -31 -6 -4 -10 7 -10 24 0 17 5 31 10 31 6 0 10 -11 10 -24z m490
-5 c0 -28 -11 -52 -21 -45 -10 6 -12 48 -2 57 12 13 23 7 23 -12z m50 -10 c0
-29 -14 -49 -23 -34 -8 12 4 63 14 63 5 0 9 -13 9 -29z m1460 -45 c0 -14 -4
-28 -10 -31 -6 -4 -10 7 -10 24 0 17 5 31 10 31 6 0 10 -11 10 -24z m41 -19
c-8 -8 -11 -5 -11 9 0 27 14 41 18 19 2 -9 -1 -22 -7 -28z m439 16 c0 -10 -5
-25 -10 -33 -7 -11 -10 -7 -10 18 0 17 5 32 10 32 6 0 10 -8 10 -17z m44 -21
c-4 -12 -10 -22 -15 -22 -10 0 -12 21 -3 45 9 24 24 4 18 -23z m49 8 c-8 -31
-23 -34 -23 -6 0 16 6 26 14 26 9 0 12 -7 9 -20z m367 -5 c0 -14 -4 -25 -10
-25 -11 0 -14 33 -3 43 11 11 13 8 13 -18z m-333 -7 c-3 -8 -6 -5 -6 6 -1 11
2 17 5 13 3 -3 4 -12 1 -19z m383 8 c0 -15 -18 -31 -26 -23 -7 7 7 37 17 37 5
0 9 -6 9 -14z m827 -38 c-3 -7 -5 -2 -5 12 0 14 2 19 5 13 2 -7 2 -19 0 -25z
m43 7 c-7 -9 -15 -13 -17 -11 -7 7 7 26 19 26 6 0 6 -6 -2 -15z m50 5 c0 -5
-4 -10 -10 -10 -5 0 -10 5 -10 10 0 6 5 10 10 10 6 0 10 -4 10 -10z m-1919
-173 c-13 -13 -15 21 -3 50 6 15 8 13 10 -11 2 -16 -1 -33 -7 -39z m59 30 c0
-26 -9 -39 -20 -32 -10 6 0 55 11 55 5 0 9 -10 9 -23z m50 6 c0 -22 -17 -49
-25 -41 -8 8 5 58 16 58 5 0 9 -8 9 -17z m-1995 -871 c-3 -7 -9 -11 -14 -7
-14 8 -12 624 3 655 8 19 12 -48 14 -305 1 -181 0 -336 -3 -343z m-1350 58
c-17 -44 -25 39 -25 276 0 195 3 263 13 273 10 10 13 -43 15 -261 1 -150 0
-279 -3 -288z m-5566 413 c1 -78 -30 -81 -65 -7 -23 48 -16 78 21 84 37 7 43
-5 44 -77z m9696 -380 c-3 -13 -10 -23 -16 -23 -11 0 -3 440 9 475 8 23 15
-419 7 -452z m-9295 418 c0 -14 -3 -43 -6 -63 l-6 -37 -34 40 c-44 53 -44 81
1 91 32 7 45 -2 45 -31z m9749 -207 c-2 -249 -4 -284 -20 -284 -10 0 -12 361
-2 463 3 37 10 67 15 67 5 0 8 -103 7 -246z m32 143 c-8 -8 -11 4 -11 39 0 66
14 80 18 19 2 -26 -2 -53 -7 -58z m-9083 84 c2 -1 2 -18 0 -38 l-3 -37 -129 2
c-71 1 -137 4 -147 7 -23 8 -31 53 -10 65 12 8 253 8 289 1z m9354 -243 c-2
-153 -7 -257 -13 -263 -10 -10 -11 474 -1 503 14 39 17 -14 14 -240z m-8822
185 c0 -27 1 -147 3 -268 l2 -220 -29 2 c-16 1 -30 4 -33 7 -7 7 -16 493 -10
510 4 10 18 16 37 16 29 0 30 -1 30 -47z m215 7 c0 -26 -4 -34 -15 -31 -8 3
-34 4 -58 3 -52 -3 -73 14 -61 46 8 21 14 23 71 20 l63 -3 0 -35z m1205 -240
c0 -264 -2 -275 -36 -252 -7 4 -14 92 -18 253 -8 260 -8 256 37 258 16 1 17
-18 17 -259z m200 223 c0 -34 -12 -41 -39 -24 -9 6 -21 5 -32 -2 -13 -8 -21
-7 -33 2 -37 31 -12 57 54 58 l50 0 0 -34z m268 0 c-3 -26 -6 -28 -53 -28 -47
0 -50 2 -53 28 -3 27 -3 27 53 27 56 0 56 0 53 -27z m2167 -33 c-4 -11 -11
-20 -16 -20 -10 0 -12 31 -3 55 6 16 8 16 16 1 5 -9 6 -25 3 -36z m4725 36 c0
-8 -4 -18 -10 -21 -5 -3 -10 3 -10 14 0 12 5 21 10 21 6 0 10 -6 10 -14z
m-4900 -21 c0 -14 -4 -25 -9 -25 -12 0 -23 29 -15 41 10 18 24 9 24 -16z m120
-5 c0 -20 -5 -30 -15 -30 -15 0 -21 40 -8 53 14 15 23 6 23 -23z m565 -28 c-6
-15 -8 -15 -15 3 -4 11 -3 29 4 40 10 19 11 19 14 -3 2 -13 0 -31 -3 -40z m65
39 c0 -26 -10 -51 -21 -51 -10 0 -12 31 -3 54 9 22 24 20 24 -3z m54 -36 c-4
-8 -10 -12 -15 -9 -11 6 -12 48 -2 58 10 10 24 -31 17 -49z m442 -11 c-3 -9
-10 -12 -16 -9 -14 9 -13 48 3 64 10 10 13 7 15 -14 2 -15 1 -33 -2 -41z
m-5574 -179 c4 -126 3 -234 -1 -238 -5 -5 -28 -5 -52 0 -47 10 -47 10 -30 78
13 50 14 195 1 215 -7 12 -31 15 -102 15 -51 0 -99 4 -105 8 -10 6 -13 -21
-13 -123 l0 -132 75 4 c72 5 76 4 81 -19 11 -43 -1 -53 -65 -53 -54 0 -64 3
-94 33 -18 17 -43 40 -55 49 -20 16 -22 27 -22 118 l0 100 35 14 c21 9 35 22
35 33 0 39 16 46 117 52 l98 6 17 35 c13 29 22 36 45 35 l28 0 7 -230z m5628
205 c0 -16 -4 -30 -10 -30 -5 0 -10 14 -10 30 0 17 5 30 10 30 6 0 10 -13 10
-30z m58 3 c-4 -34 -28 -43 -28 -10 0 25 7 37 22 37 5 0 8 -12 6 -27z m363
-36 c-8 -8 -11 -2 -11 19 0 40 14 54 18 19 2 -15 -1 -32 -7 -38z m63 19 c-3
-14 -10 -26 -15 -26 -10 0 -12 53 -2 64 13 12 24 -11 17 -38z m56 25 c0 -26
-10 -51 -21 -51 -10 0 -12 31 -3 54 9 22 24 20 24 -3z m41 -34 c-8 -8 -11 -4
-11 14 0 33 14 47 18 19 2 -12 -1 -27 -7 -33z m-5696 -14 l-6 -26 -21 21 c-18
17 -19 24 -9 36 8 9 17 13 22 10 5 -3 10 1 10 8 1 7 3 5 6 -5 3 -10 2 -30 -2
-44z m6006 14 c-13 -13 -15 1 -4 30 7 17 8 17 11 -1 2 -10 -1 -23 -7 -29z
m-7627 11 c8 -30 8 -198 0 -198 -3 0 -18 7 -34 17 -22 13 -29 26 -34 65 -9 64
1 118 20 111 8 -3 17 2 20 11 9 23 21 20 28 -6z m7896 10 c0 -7 -5 -20 -10
-28 -8 -12 -10 -9 -10 13 0 15 5 27 10 27 6 0 10 -6 10 -12z m840 -12 c0 -27
-15 -42 -25 -26 -8 13 3 50 16 50 5 0 9 -11 9 -24z m50 10 c0 -22 -11 -46 -21
-46 -10 0 -12 43 -2 53 11 12 23 8 23 -7z m49 2 c0 -7 -4 -22 -9 -33 -7 -18
-8 -19 -15 -2 -4 9 -5 24 -1 32 7 18 26 20 25 3z m31 -542 c-7 -7 -10 79 -10
265 0 152 3 279 8 283 4 4 8 -115 10 -265 1 -175 -1 -276 -8 -283z m344 527
c-6 -31 -11 -39 -20 -30 -9 9 4 57 16 57 5 0 6 -12 4 -27z m38 -25 c-15 -15
-21 4 -9 32 l10 25 5 -24 c2 -13 -1 -28 -6 -33z m58 33 c0 -10 -7 -24 -15 -31
-12 -10 -15 -10 -15 3 0 23 11 47 21 47 5 0 9 -8 9 -19z m-5798 -8 c3 -10 6
-109 7 -221 2 -180 1 -203 -14 -208 -9 -4 -21 -2 -26 3 -16 16 -15 409 1 428
16 20 27 19 32 -2z m6160 -8 c-2 -14 -8 -25 -13 -25 -10 0 -12 34 -2 43 13 14
20 6 15 -18z m48 6 c0 -11 -4 -23 -10 -26 -6 -4 -10 5 -10 19 0 14 5 26 10 26
6 0 10 -9 10 -19z m-6470 -211 c0 -174 -3 -220 -13 -220 -33 0 -37 23 -37 232
l0 208 25 0 25 0 0 -220z m7251 -168 c-7 -12 -10 44 -11 179 0 108 3 199 8
203 11 12 14 -362 3 -382z m-921 368 c0 -5 -4 -10 -10 -10 -5 0 -10 5 -10 10
0 6 5 10 10 10 6 0 10 -4 10 -10z m569 -74 c-9 -8 -10 -5 -5 14 3 14 7 36 8
50 1 14 3 8 5 -14 3 -22 -1 -43 -8 -50z m780 -108 c0 -106 -4 -184 -8 -173 -7
20 -3 365 5 365 2 0 4 -87 3 -192z m-4849 6 c0 -139 -2 -164 -15 -164 -13 0
-15 25 -15 163 0 90 3 167 6 170 19 18 24 -19 24 -169z m220 6 c0 -129 -3
-170 -12 -170 -10 0 -13 38 -13 158 0 139 5 182 21 182 2 0 4 -76 4 -170z
m-6052 72 c3 -90 -4 -99 -45 -60 -32 30 -33 102 0 129 12 10 27 17 32 15 6 -1
11 -39 13 -84z m6383 -71 c0 -98 -3 -157 -10 -164 -8 -8 -11 34 -11 149 0 140
4 183 16 171 2 -2 4 -72 5 -156z m750 -38 c-1 -104 -6 -192 -12 -197 -5 -6 -9
63 -9 185 0 178 4 219 18 204 3 -3 4 -89 3 -192z m312 85 c-3 -21 -9 -38 -14
-38 -11 0 -12 111 -2 137 11 26 23 -52 16 -99z m3657 72 c0 -22 -4 -40 -10
-40 -5 0 -10 18 -10 40 0 22 5 40 10 40 6 0 10 -18 10 -40z m-2010 -154 c-7
-7 -10 15 -10 71 0 115 14 138 18 29 2 -53 -1 -93 -8 -100z m-654 -113 c-3 -7
-9 -13 -13 -13 -10 0 -6 270 4 290 9 16 17 -256 9 -277z m-837 202 c0 -27 -4
-59 -8 -70 -7 -16 -9 -12 -13 20 -3 22 -3 60 0 83 6 58 22 34 21 -33z m1318
-93 c-7 -140 -26 -158 -26 -26 0 55 3 122 6 149 l6 50 10 -35 c5 -19 7 -82 4
-138z m1120 136 c-3 -7 -5 -2 -5 12 0 14 2 19 5 13 2 -7 2 -19 0 -25z m1220
-15 c-3 -10 -5 -4 -5 12 0 17 2 24 5 18 2 -7 2 -21 0 -30z m-408 -35 c0 -45
-3 -56 -8 -38 -7 24 -3 100 5 100 2 0 4 -28 3 -62z m-3823 -4 c-3 -8 -10 -14
-16 -14 -14 0 -13 27 2 53 l13 22 3 -23 c2 -13 1 -30 -2 -38z m45 -7 c-13 -13
-15 21 -3 50 6 15 8 13 10 -11 2 -16 -1 -33 -7 -39z m-91 46 c-1 -21 -13 -53
-21 -53 -10 0 -12 43 -2 53 9 9 23 9 23 0z m-70 -257 c-7 -7 -10 21 -10 90 0
131 14 145 18 18 2 -58 -1 -101 -8 -108z m3040 173 c0 -16 -4 -28 -9 -25 -8 5
-3 56 5 56 2 0 4 -14 4 -31z m-999 -32 c-8 -8 -11 -4 -11 14 0 33 14 47 18 19
2 -12 -1 -27 -7 -33z m47 2 c-18 -12 -22 5 -6 33 l13 23 3 -24 c2 -13 -2 -27
-10 -32z m62 38 c0 -7 -7 -22 -15 -33 -12 -16 -14 -17 -15 -2 0 23 11 48 21
48 5 0 9 -6 9 -13z m2027 -69 c-2 -13 -4 -5 -4 17 -1 22 1 32 4 23 2 -10 2
-28 0 -40z m-11247 3 c0 -31 37 -47 67 -28 15 9 26 -54 18 -112 -6 -54 -8 -56
-35 -41 -11 6 -29 8 -39 5 -14 -4 -27 5 -50 34 -39 49 -42 97 -6 135 28 31 45
33 45 7z m7654 -122 c4 -131 -2 -212 -14 -204 -8 5 -11 314 -3 328 10 17 13
-3 17 -124z m55 51 c0 -19 -4 -44 -8 -54 -7 -19 -8 -19 -15 -1 -4 11 -4 44 0
75 5 41 9 50 15 35 4 -11 8 -36 8 -55z m3293 -22 c-9 -9 -12 -4 -11 23 0 32 1
33 11 11 8 -17 8 -26 0 -34z m-2865 -35 c-2 -16 -4 -3 -4 27 0 30 2 43 4 28 2
-16 2 -40 0 -55z m-2092 -34 c-4 -11 -11 -19 -16 -19 -11 0 -12 63 -2 74 11
10 24 -34 18 -55z m3066 8 c-8 -8 -11 -4 -11 14 0 33 14 47 18 19 2 -12 -1
-27 -7 -33z m54 13 c-5 -23 -10 -29 -18 -21 -7 7 -7 18 2 37 15 34 25 25 16
-16z m411 -8 c-12 -11 -18 7 -10 30 l8 23 4 -23 c2 -13 1 -26 -2 -30z m-3485
-25 c-17 -17 -24 18 -9 45 l13 23 3 -29 c2 -16 -1 -33 -7 -39z m67 22 c-5 -35
-28 -36 -28 -1 0 16 3 32 7 36 11 11 25 -10 21 -35z m442 11 c0 -20 -5 -30
-15 -30 -17 0 -18 4 -9 38 9 32 24 27 24 -8z m41 -33 c-8 -8 -11 -2 -11 19 0
40 14 54 18 19 2 -15 -1 -32 -7 -38z m492 21 c-3 -16 -9 -28 -14 -28 -11 0
-12 53 -2 64 12 12 22 -9 16 -36z m53 -3 c-4 -14 -11 -25 -16 -25 -15 0 -12
58 3 63 16 5 20 -8 13 -38z m1464 21 c0 -24 -16 -43 -27 -32 -8 8 6 56 17 56
6 0 10 -11 10 -24z m50 11 c0 -7 -7 -22 -15 -33 -14 -18 -14 -18 -15 7 0 14 3
29 7 32 11 11 23 8 23 -6z m509 -28 c-12 -21 -14 -22 -17 -6 -6 28 6 53 19 40
8 -8 7 -18 -2 -34z m415 19 c-8 -28 -12 -33 -20 -25 -9 8 6 47 17 47 6 0 7
-10 3 -22z m1373 0 c-3 -8 -6 -5 -6 6 -1 11 2 17 5 13 3 -3 4 -12 1 -19z
m-5529 -20 c-3 -34 -20 -42 -26 -13 -5 22 5 45 18 45 7 0 10 -14 8 -32z m62
13 c0 -28 -11 -52 -21 -45 -10 6 -12 48 -2 57 12 13 23 7 23 -12z m3722 -3
c-7 -7 -12 -8 -12 -2 0 14 12 26 19 19 2 -3 -1 -11 -7 -17z m-566 -216 c-13
-12 -17 8 -10 40 l9 33 3 -33 c2 -19 1 -36 -2 -40z m45 5 c-13 -13 -15 21 -3
50 6 15 8 13 10 -11 2 -16 -1 -33 -7 -39z m-81 46 c-1 -21 -13 -53 -21 -53
-10 0 -12 43 -2 53 9 9 23 9 23 0z m-1890 -608 c0 -291 -2 -335 -15 -335 -13
0 -15 42 -15 316 0 286 5 354 25 354 3 0 5 -151 5 -335z m2765 -163 c-3 -7 -9
-11 -14 -8 -11 7 -5 438 7 476 4 14 8 -83 10 -215 1 -132 0 -246 -3 -253z
m491 451 c-10 -10 -19 5 -10 18 6 11 8 11 12 0 2 -7 1 -15 -2 -18z m54 20 c0
-5 -4 -15 -10 -23 -11 -18 -25 -7 -17 15 6 15 27 21 27 8z m33 -13 c-3 -11 -7
-20 -9 -20 -2 0 -4 9 -4 20 0 11 4 20 9 20 5 0 7 -9 4 -20z m-4684 -352 c1
-243 -4 -287 -27 -263 -4 4 -8 124 -10 267 -2 197 0 263 9 275 12 13 14 13 20
-4 4 -10 8 -134 8 -275z m4554 220 c-6 -71 -13 -74 -13 -5 0 32 4 57 9 57 4 0
6 -23 4 -52z m-362 -21 c-8 -8 -11 -4 -11 14 0 33 14 47 18 19 2 -12 -1 -27
-7 -33z m832 38 c-3 -9 -8 -14 -10 -11 -3 3 -2 9 2 15 9 16 15 13 8 -4z
m-1323 -13 c0 -10 -7 -27 -15 -38 -14 -19 -14 -19 -15 3 0 28 10 53 21 53 5 0
9 -8 9 -18z m36 -40 c-12 -12 -18 8 -10 35 l8 28 4 -28 c2 -16 1 -31 -2 -35z
m45 5 c-16 -16 -26 20 -10 40 13 15 14 14 17 -7 2 -12 -1 -27 -7 -33z m360 10
c-8 -8 -11 -5 -11 9 0 27 14 41 18 19 2 -9 -1 -22 -7 -28z m-921 -2 c0 -19 -4
-35 -10 -35 -11 0 -13 30 -4 54 10 25 14 19 14 -19z m96 -11 c-3 -8 -9 -14
-14 -14 -12 0 -11 33 2 49 9 12 12 11 14 -3 2 -9 1 -24 -2 -32z m50 -226 c-9
-362 -26 -379 -26 -26 0 265 3 298 23 298 7 0 8 -85 3 -272z m-105 209 c-8 -8
-11 -4 -11 14 0 33 14 47 18 19 2 -12 -1 -27 -7 -33z m794 43 c3 -5 1 -10 -4
-10 -6 0 -11 5 -11 10 0 6 2 10 4 10 3 0 8 -4 11 -10z m-2290 -49 c-8 -36 -25
-41 -25 -8 0 22 19 51 28 43 2 -3 1 -18 -3 -35z m51 -17 c-3 -8 -10 -14 -16
-14 -14 0 -13 27 2 53 l13 22 3 -23 c2 -13 1 -30 -2 -38z m305 3 c-8 -8 -11
-4 -11 14 0 33 14 47 18 19 2 -12 -1 -27 -7 -33z m261 22 c-3 -20 -8 -27 -14
-21 -11 11 -2 52 11 52 4 0 6 -14 3 -31z m-722 -9 c0 -16 -4 -30 -10 -30 -5 0
-10 14 -10 30 0 17 5 30 10 30 6 0 10 -13 10 -30z m41 -33 c-8 -8 -11 -2 -11
19 0 40 14 54 18 19 2 -15 -1 -32 -7 -38z m-521 24 c0 -32 -14 -49 -25 -31 -9
15 3 60 15 60 6 0 10 -13 10 -29z m50 -1 c0 -16 -4 -30 -10 -30 -11 0 -14 43
-3 53 11 12 13 8 13 -23z m58 3 c-4 -34 -28 -43 -28 -10 0 25 7 37 22 37 5 0
8 -12 6 -27z m2544 -67 c-2 -47 -8 -86 -13 -86 -10 0 -13 139 -3 164 13 34 19
4 16 -78z m1157 37 c-1 -32 -4 -83 -9 -113 -6 -47 -7 -39 -9 58 0 69 3 112 9
112 6 0 10 -25 9 -57z m-4311 15 c-3 -35 -28 -52 -28 -20 0 28 10 52 22 52 5
0 8 -14 6 -32z m62 13 c0 -26 -10 -51 -21 -51 -10 0 -12 53 -2 63 12 13 23 7
23 -12z m2905 -238 c-3 -24 -10 -43 -14 -43 -10 0 -5 276 6 292 10 16 17 -190
8 -249z m-3539 181 c-3 -9 -10 -12 -16 -9 -14 9 -13 48 3 64 10 10 13 7 15
-14 2 -15 1 -33 -2 -41z m524 52 c0 -22 -11 -46 -21 -46 -5 0 -9 14 -9 30 0
20 5 30 15 30 8 0 15 -6 15 -14z m2530 -300 c-12 -12 -14 271 -2 301 4 10 8
-51 10 -136 1 -96 -1 -158 -8 -165z m-3110 274 c0 -20 -5 -30 -15 -30 -15 0
-21 40 -8 53 14 15 23 6 23 -23z m2121 -148 c-8 -12 -10 5 -11 65 0 111 14
140 18 35 2 -45 -2 -90 -7 -100z m-2241 143 c0 -14 -4 -25 -10 -25 -11 0 -14
33 -3 43 11 11 13 8 13 -18z m1931 -373 c-13 -21 -15 20 -12 223 2 214 16 205
19 -13 1 -115 -2 -200 -7 -210z m3549 326 c0 -39 -2 -69 -4 -67 -7 7 -17 120
-11 130 12 19 15 7 15 -63z m-730 42 c0 -11 -4 -20 -9 -20 -7 0 -8 17 -2 38 4
10 11 -2 11 -18z m50 13 c0 -5 -5 -15 -10 -23 -8 -12 -10 -11 -10 8 0 12 5 22
10 22 6 0 10 -3 10 -7z m-2400 -88 c0 -50 -4 -85 -10 -85 -11 0 -14 152 -3
163 12 13 13 7 13 -78z m2310 70 c0 -8 -4 -15 -10 -15 -5 0 -10 7 -10 15 0 8
5 15 10 15 6 0 10 -7 10 -15z m-3850 -171 c0 -129 -3 -175 -12 -172 -8 3 -11
51 -10 167 2 148 5 181 18 181 2 0 4 -79 4 -176z m-3211 155 c19 12 106 5 105
-8 -1 -6 -2 -21 -2 -32 -2 -18 -7 -21 -30 -16 -15 3 -34 2 -42 -3 -9 -5 -19
-5 -27 1 -8 7 -18 7 -29 1 -27 -15 -54 -3 -50 22 3 11 5 24 5 28 1 10 35 15
46 7 6 -4 17 -4 24 0z m2986 -317 c-3 -13 -10 -20 -15 -17 -15 10 -13 318 3
334 10 10 13 -19 15 -141 1 -84 0 -163 -3 -176z m558 140 c-3 -73 -10 -135
-15 -138 -10 -6 -11 310 -1 320 16 16 23 -56 16 -182z m-5047 -125 c-1 -244
-2 -252 -21 -255 -48 -6 -49 1 -53 266 l-4 250 28 10 c50 17 52 6 50 -271z
m209 248 c0 -29 -1 -30 -53 -32 -44 -1 -54 2 -63 19 -17 31 13 50 71 46 43 -3
45 -5 45 -33z m8476 -78 c-8 -8 -11 5 -11 44 0 72 14 86 18 18 2 -28 -2 -57
-7 -62z m269 103 c0 -5 -4 -10 -10 -10 -5 0 -10 5 -10 10 0 6 5 10 10 10 6 0
10 -4 10 -10z m40 6 c0 -3 -4 -8 -10 -11 -5 -3 -10 -1 -10 4 0 6 5 11 10 11 6
0 10 -2 10 -4z m-9524 -42 c3 -19 4 -37 2 -40 -3 -2 -63 -5 -134 -6 -142 -1
-177 8 -172 45 4 28 28 33 175 34 l122 1 7 -34z m2191 -1 c-3 -10 -5 -4 -5 12
0 17 2 24 5 18 2 -7 2 -21 0 -30z m3976 -5 c-3 -16 -9 -28 -14 -28 -11 0 -12
53 -2 64 12 12 22 -9 16 -36z m57 18 c0 -13 -7 -29 -15 -36 -12 -10 -15 -9
-15 8 0 27 10 52 21 52 5 0 9 -11 9 -24z m50 2 c0 -13 -4 -29 -9 -37 -13 -20
-24 4 -17 35 8 30 26 32 26 2z m1911 -41 c-13 -13 -15 21 -3 50 6 15 8 13 10
-11 2 -16 -1 -33 -7 -39z m55 18 c-4 -14 -11 -25 -16 -25 -14 0 -12 44 2 58
16 16 22 0 14 -33z m-9336 -52 c4 -37 8 -62 9 -55 0 7 6 10 12 7 5 -4 18 0 28
9 17 16 19 15 25 -15 8 -42 7 -179 -3 -202 -6 -17 -8 -17 -32 5 -19 17 -28 42
-38 96 -7 39 -16 72 -21 72 -4 0 -15 16 -24 35 -9 19 -21 35 -27 35 -6 0 -9
17 -7 37 2 28 9 41 28 50 34 17 42 5 50 -74z m395 77 c3 -5 3 -38 -1 -74 l-7
-64 -26 31 c-14 18 -30 35 -34 38 -17 12 -2 54 23 66 30 15 37 16 45 3z m8850
-17 c-9 -37 -25 -53 -25 -26 0 29 10 53 22 53 6 0 7 -11 3 -27z m-6210 -75 c0
-37 -3 -69 -7 -73 -3 -4 -16 -2 -27 5 -17 9 -21 20 -21 65 0 41 4 56 18 64 30
18 36 7 37 -61z m-1857 -298 c-2 -105 -6 -144 -15 -143 -6 2 -26 4 -43 5 -47
4 -56 20 -36 71 20 54 23 233 4 235 -68 6 -140 3 -152 -7 -11 -9 -20 -10 -35
-2 -18 10 -21 8 -26 -21 -3 -18 -5 -73 -3 -122 l3 -89 78 1 77 1 0 -34 c0 -19
-1 -35 -2 -36 -2 0 -31 -3 -66 -5 -62 -5 -63 -4 -103 36 -22 22 -44 40 -49 40
-12 0 -23 102 -18 159 4 42 11 54 62 104 l56 57 79 0 80 0 17 40 c16 37 27 44
62 43 6 -1 13 4 13 11 6 45 19 -227 17 -344z m6027 141 c-5 -13 -7 -14 -15 -1
-14 22 -12 154 3 187 11 25 12 18 15 -71 1 -55 0 -107 -3 -115z m-5515 164 c0
-39 -22 -48 -40 -16 -18 34 -12 43 33 50 4 0 7 -15 7 -34z m6081 -373 c-7 -12
-10 41 -11 169 0 102 3 189 8 193 11 12 14 -342 3 -362z m58 276 c-1 -100 -17
-118 -18 -20 -1 48 3 82 9 82 6 0 10 -27 9 -62z m-7509 -42 c0 -52 -4 -97 -9
-101 -5 -3 -21 5 -35 18 -37 35 -37 103 1 146 15 17 31 31 35 31 5 0 8 -42 8
-94z m9866 47 c-10 -10 -19 5 -10 18 6 11 8 11 12 0 2 -7 1 -15 -2 -18z
m-6946 -17 c0 -37 -15 -55 -32 -38 -6 6 -18 8 -27 3 -13 -6 -95 -8 -123 -2 -3
0 -3 13 1 28 7 26 12 28 60 30 38 2 53 -1 57 -12 8 -19 24 -19 24 -1 0 13 13
23 33 25 4 1 7 -14 7 -33z m5996 -34 c-13 -12 -17 8 -10 40 l9 33 3 -33 c2
-19 1 -36 -2 -40z m514 55 c0 -7 -7 -22 -15 -33 -12 -16 -14 -17 -15 -2 0 23
11 48 21 48 5 0 9 -6 9 -13z m386 -14 c-10 -10 -19 5 -10 18 6 11 8 11 12 0 2
-7 1 -15 -2 -18z m94 12 c0 -8 -4 -15 -10 -15 -5 0 -10 7 -10 15 0 8 5 15 10
15 6 0 10 -7 10 -15z m-955 -54 c-15 -15 -16 -14 -9 14 10 44 18 53 22 26 2
-13 -4 -31 -13 -40z m59 21 c-4 -12 -10 -22 -15 -22 -10 0 -12 21 -3 45 9 24
24 4 18 -23z m42 -9 c-10 -26 -18 -8 -9 23 5 21 8 24 11 11 2 -10 1 -25 -2
-34z m324 28 c0 -11 -4 -23 -10 -26 -6 -4 -10 5 -10 19 0 14 5 26 10 26 6 0
10 -9 10 -19z m-939 -54 c-13 -13 -15 21 -3 50 6 15 8 13 10 -11 2 -16 -1 -33
-7 -39z m54 6 c-4 -19 -9 -23 -17 -15 -9 9 -8 19 2 39 15 32 25 16 15 -24z
m-5506 -55 c1 -20 -4 -49 -9 -64 -15 -38 -32 -18 -38 46 -4 40 -1 55 14 71 17
19 19 19 25 2 4 -10 8 -35 8 -55z m3942 -21 c-8 -8 -11 -1 -11 24 0 46 14 60
18 19 2 -18 -1 -37 -7 -43z m63 29 c-3 -14 -10 -26 -15 -26 -10 0 -12 31 -3
55 10 26 26 1 18 -29z m-584 -6 c0 -28 -15 -48 -27 -36 -3 3 -2 21 1 41 8 41
26 38 26 -5z m627 18 c-3 -8 -6 -5 -6 6 -1 11 2 17 5 13 3 -3 4 -12 1 -19z
m-1183 -60 c-3 -10 -10 -18 -15 -18 -10 0 -12 34 -2 70 l7 25 8 -30 c4 -17 5
-38 2 -47z m606 37 c0 -19 -4 -35 -10 -35 -11 0 -14 53 -3 63 11 12 13 8 13
-28z m-490 -9 c0 -38 -16 -57 -26 -32 -8 21 3 66 16 66 6 0 10 -15 10 -34z
m-60 -5 c0 -31 -14 -49 -25 -32 -8 13 5 61 16 61 5 0 9 -13 9 -29z m-636 -49
l-7 -27 -6 30 c-4 17 -2 35 4 42 14 15 19 -10 9 -45z m62 -8 c-3 -9 -10 -12
-16 -9 -14 9 -13 48 3 64 10 10 13 7 15 -14 2 -15 1 -33 -2 -41z m-5496 12 c0
-26 21 -71 28 -61 4 6 17 15 28 22 20 11 22 9 27 -40 4 -29 4 -69 1 -89 l-6
-37 -47 6 c-34 4 -53 13 -74 37 -26 28 -28 36 -23 84 3 39 11 58 28 72 28 23
38 25 38 6z m8557 -18 c-3 -8 -6 -5 -6 6 -1 11 2 17 5 13 3 -3 4 -12 1 -19z
m-5681 -6 c-12 -19 11 -33 37 -23 14 6 29 7 31 2 6 -8 108 3 125 14 7 4 11 -7
11 -30 0 -38 -22 -57 -42 -37 -7 7 -16 8 -23 2 -10 -9 -30 -10 -137 -10 -45 0
-48 1 -48 27 0 26 25 63 42 63 5 0 7 -4 4 -8z m5730 -38 c-4 -14 -11 -22 -16
-19 -5 3 -4 19 2 37 13 36 24 21 14 -18z m52 15 c-3 -36 -28 -64 -28 -30 0 18
19 61 28 61 1 0 1 -14 0 -31z m44 -4 c-2 -14 -8 -28 -13 -31 -10 -6 -12 26 -3
50 9 24 22 10 16 -19z m-1661 -438 c-17 -17 -23 16 -9 49 l12 29 4 -34 c2 -18
-1 -38 -7 -44z m-270 -10 c-13 -13 -15 31 -3 60 5 14 8 10 10 -16 2 -18 -1
-38 -7 -44z m2534 26 c-5 -20 -9 -23 -15 -13 -5 7 -3 24 3 38 13 29 22 12 12
-25z m41 -11 c-12 -12 -18 8 -10 35 l8 28 4 -28 c2 -16 1 -31 -2 -35z m-2666
14 c0 -13 -7 -29 -15 -36 -13 -11 -15 -8 -15 13 0 34 10 58 21 51 5 -3 9 -16
9 -28z m46 -22 c-3 -8 -10 -14 -16 -14 -14 0 -13 27 2 53 l13 22 3 -23 c2 -13
1 -30 -2 -38z m-270 -20 c-3 -8 -10 -14 -16 -14 -14 0 -13 37 2 63 13 22 13
22 16 -6 2 -16 1 -35 -2 -43z m54 31 c0 -19 -4 -35 -10 -35 -11 0 -13 30 -4
54 10 25 14 19 14 -19z m56 -9 c-3 -14 -11 -26 -16 -26 -11 0 -13 30 -4 55 10
26 28 1 20 -29z m44 -550 c-16 -16 -18 563 -1 589 3 6 7 -122 9 -284 1 -190
-1 -298 -8 -305z m2410 170 c-12 -12 -14 381 -2 411 4 10 8 -76 10 -191 1
-133 -1 -213 -8 -220z m100 394 c0 -16 -4 -30 -10 -30 -11 0 -14 43 -3 53 11
12 13 8 13 -23z m46 -5 c-3 -10 -11 -13 -18 -9 -9 6 -9 9 -1 11 7 3 9 12 6 21
-5 13 -3 14 7 5 7 -6 10 -19 6 -28z m-3208 -272 c-2 -177 -7 -278 -13 -278 -6
0 -11 90 -13 245 -3 247 1 310 19 310 6 0 8 -103 7 -277z m2203 204 c-19 -19
-24 1 -10 35 l14 33 3 -29 c2 -16 -1 -33 -7 -39z m55 18 c-4 -14 -11 -25 -16
-25 -10 0 -4 43 8 65 9 15 14 -14 8 -40z m1004 -59 c0 -134 -11 -276 -22 -276
-6 0 -8 73 -5 188 6 216 4 195 17 187 6 -3 10 -48 10 -99z m-1359 21 c-13 -13
-15 15 -3 53 7 24 7 23 10 -9 2 -18 -1 -38 -7 -44z m50 6 c-9 -16 -10 -15 -11
9 0 14 3 35 8 45 6 15 8 14 10 -9 2 -15 -1 -35 -7 -45z m200 4 c-8 -8 -11 -2
-11 19 0 40 14 54 18 19 2 -15 -1 -32 -7 -38z m-450 -20 c-13 -13 -15 31 -3
60 5 14 8 10 10 -16 2 -18 -1 -38 -7 -44z m54 5 c-4 -11 -9 -12 -17 -4 -8 8
-7 20 3 44 l14 33 3 -28 c2 -16 1 -36 -3 -45z m-150 -379 c-3 -18 -10 -33 -15
-33 -16 0 -13 426 3 453 10 18 12 -13 15 -183 2 -113 0 -220 -3 -237z m-520
-50 c-3 -13 -10 -23 -15 -23 -16 0 -13 435 3 460 10 17 13 -18 15 -197 1 -120
0 -228 -3 -240z m920 58 c-3 -7 -8 -11 -11 -8 -8 8 -4 388 4 401 8 13 15 -371
7 -393z m305 322 c0 -84 -7 -123 -21 -123 -10 0 -12 142 -3 178 13 46 24 19
24 -55z m-504 -330 c-3 -7 -10 -13 -16 -13 -8 0 -9 53 -5 178 8 250 20 272 23
42 1 -107 0 -200 -2 -207z m295 89 c-12 -20 -15 256 -3 285 4 10 8 -46 10
-125 1 -82 -2 -150 -7 -160z m-454 236 c-3 -7 -5 -2 -5 12 0 14 2 19 5 13 2
-7 2 -19 0 -25z m-1591 -10 c-9 -43 -26 -60 -26 -26 0 34 9 58 22 58 6 0 8
-13 4 -32z m45 -31 c-17 -17 -24 18 -9 45 l13 23 3 -29 c2 -16 -1 -33 -7 -39z
m-611 -12 c0 -19 -5 -46 -12 -62 -12 -28 -12 -27 -18 22 -5 49 6 89 22 79 4
-3 8 -20 8 -39z m110 10 c0 -24 -5 -35 -15 -35 -15 0 -20 26 -9 54 11 28 24
17 24 -19z m340 15 c0 -11 -4 -20 -10 -20 -5 0 -10 9 -10 20 0 11 5 20 10 20
6 0 10 -9 10 -20z m-396 2 c9 -15 -6 -52 -20 -52 -15 0 -18 18 -8 44 7 17 20
21 28 8z m2712 -68 c-7 -26 -26 -33 -26 -9 0 8 6 26 12 41 10 22 14 24 16 10
2 -10 1 -28 -2 -42z m-3296 12 c0 -28 -8 -36 -26 -29 -17 6 -18 35 -2 51 15
15 28 6 28 -22z m51 21 c-1 -4 -1 -19 -1 -34 0 -25 -1 -26 -16 -11 -17 17 -11
62 8 56 5 -2 9 -7 9 -11z m-111 -16 c0 -25 -10 -51 -20 -51 -12 0 -21 31 -15
51 8 25 35 24 35 0z m3251 -38 c-9 -15 -10 -13 -11 13 0 17 3 34 8 38 11 12
14 -32 3 -51z m59 35 c0 -30 -15 -54 -24 -40 -8 14 3 62 15 62 5 0 9 -10 9
-22z m357 -25 c-3 -10 -5 -2 -5 17 0 19 2 27 5 18 2 -10 2 -26 0 -35z m-4161
-30 c-3 -8 -11 -13 -18 -11 -18 6 -18 41 0 62 16 18 17 18 20 -9 2 -15 1 -33
-2 -42z m-58 16 c-4 -33 -38 -39 -38 -7 0 28 20 52 33 39 5 -5 7 -19 5 -32z
m-120 -214 c2 -240 -3 -280 -33 -255 -8 7 -12 75 -14 234 -2 224 4 273 32 263
9 -3 13 -69 15 -242z m851 128 c0 -89 -4 -113 -23 -113 -15 0 -18 176 -4 204
17 32 27 -1 27 -91z m349 -63 c-2 -112 -6 -154 -15 -158 -10 -3 -13 33 -13
156 0 87 3 162 7 166 18 18 23 -23 21 -164z m-1838 -106 l0 -255 -22 3 -23 3
-3 234 c-3 208 -1 235 14 252 9 11 21 19 26 19 4 0 8 -115 8 -256z m126 242
c6 -17 -12 -56 -26 -56 -11 0 -14 53 -3 63 11 11 23 8 29 -7z m64 -16 c0 -23
-4 -30 -20 -30 -14 0 -20 7 -20 23 0 27 7 37 27 37 8 0 13 -12 13 -30z m1060
-143 c0 -143 -8 -192 -27 -173 -10 10 -11 295 -1 319 19 45 28 -2 28 -146z
m-1710 116 c0 -42 -13 -57 -37 -44 -11 5 -23 8 -25 5 -3 -3 -30 -7 -61 -9 -48
-3 -56 -1 -60 16 -6 21 16 49 39 49 8 0 15 -11 15 -27 1 -23 2 -24 6 -6 5 25
40 40 55 25 7 -7 15 -6 25 4 23 23 43 17 43 -13z m1150 -12 c0 -33 -15 -49
-23 -27 -7 18 3 56 14 56 5 0 9 -13 9 -29z m-1835 -36 l0 -30 -67 -3 c-62 -3
-67 -5 -75 -29 -8 -23 -10 -24 -25 -10 -8 9 -18 13 -22 10 -3 -4 -6 7 -6 24 0
53 35 68 155 68 38 0 40 -2 40 -30z m62 -52 c-2 -16 -4 -3 -4 27 0 30 2 43 4
28 2 -16 2 -40 0 -55z m1139 21 c-8 -21 -23 -10 -28 20 -4 18 0 26 11 28 17 4
27 -23 17 -48z m-447 -155 c1 -155 -5 -187 -32 -176 -20 7 -26 56 -25 204 0
109 2 126 21 150 l21 26 7 -25 c3 -14 7 -94 8 -179z m-271 -1 c-2 -116 -7
-193 -13 -195 -32 -10 -38 15 -40 178 -2 155 -1 165 19 185 11 12 24 22 29 23
4 1 6 -85 5 -191z m5368 114 c-12 -11 -15 5 -8 44 l7 39 3 -39 c2 -21 1 -41
-2 -44z m-138 26 c-2 -24 -7 -42 -13 -40 -5 1 -9 9 -9 17 1 8 2 26 3 40 0 14
6 25 12 25 6 0 9 -17 7 -42z m38 -36 c-15 -15 -16 -14 -16 6 0 12 6 31 13 43
12 19 12 19 15 -7 2 -15 -3 -34 -12 -42z m54 23 c-5 -31 -9 -36 -15 -22 -4 10
-3 29 4 44 16 35 20 26 11 -22z m-3352 -16 c-3 -27 -38 -40 -38 -14 0 9 5 26
11 37 14 25 32 10 27 -23z m62 6 c0 -28 -17 -42 -33 -26 -7 7 -7 18 1 36 14
30 32 24 32 -10z m59 18 c-1 -34 -13 -53 -28 -44 -9 6 -12 18 -7 35 7 29 36
36 35 9z m-2779 -189 c0 -156 -2 -184 -15 -184 -35 0 -45 41 -46 194 0 142 1
147 23 165 13 11 26 17 30 14 5 -2 8 -87 8 -189z m-2500 94 c0 -36 13 -42 41
-17 21 18 24 18 32 3 5 -9 12 -126 15 -260 5 -224 4 -244 -12 -250 -10 -4 -22
-2 -28 4 -6 6 -16 8 -23 6 -14 -6 -25 143 -25 333 0 132 1 131 -102 131 l-68
1 0 -39 c0 -31 -3 -38 -15 -34 -22 9 -18 50 7 96 26 46 62 68 100 61 14 -3 34
0 44 5 23 13 34 -1 34 -40z m-418 20 c3 -9 12 -9 37 0 43 15 51 9 51 -39 0
-44 8 -48 35 -19 48 53 55 19 55 -282 0 -149 -4 -229 -11 -233 -5 -4 -19 1
-30 11 -10 9 -19 13 -19 8 0 -5 -5 -2 -9 6 -5 8 -11 114 -12 235 l-4 220 -85
0 -85 0 -3 -37 c-3 -41 -8 -44 -35 -24 -14 11 -15 15 -5 19 10 4 10 8 -2 16
-11 8 -12 13 -4 19 7 4 13 16 15 27 4 18 81 85 99 85 5 0 10 -5 12 -12z m-163
-29 c13 -36 16 -555 3 -562 -4 -3 -19 -3 -34 0 -33 6 -35 19 -44 325 l-6 217
27 26 c36 32 41 32 54 -6z m6329 -76 c-4 -52 -28 -56 -28 -5 0 22 3 48 6 57 6
16 8 16 16 1 5 -9 8 -33 6 -53z m170 32 c-3 -31 -18 -21 -18 11 0 14 4 22 10
19 5 -3 9 -17 8 -30z m400 3 c-4 -41 -28 -50 -28 -10 0 16 3 32 7 35 15 16 24
5 21 -25z m52 -3 c0 -24 -5 -35 -15 -35 -17 0 -20 23 -5 51 15 27 20 24 20
-16z m-560 -33 c0 -9 -5 -24 -10 -32 -7 -12 -12 -12 -21 -3 -10 10 -10 18 -1
38 13 28 32 25 32 -3z m50 -2 c0 -20 -5 -30 -15 -30 -16 0 -19 17 -9 44 10 26
24 18 24 -14z m-539 -63 c-8 -8 -11 1 -11 29 0 53 14 67 18 19 2 -21 -1 -42
-7 -48z m-163 31 c-2 -30 -8 -43 -18 -43 -11 0 -14 9 -12 35 4 40 9 50 23 50
6 0 9 -19 7 -42z m62 2 c0 -25 -10 -50 -21 -50 -10 0 -12 40 -3 64 8 20 24 11
24 -14z m56 -26 c-4 -13 -11 -24 -16 -24 -15 0 -12 68 3 73 15 5 21 -17 13
-49z m-2006 -131 c1 4 3 11 4 17 0 5 11 16 23 25 20 14 22 13 30 -12 l9 -26
25 39 24 39 3 -44 c4 -48 -10 -66 -39 -50 -12 6 -20 5 -24 -1 -4 -6 -19 -9
-33 -7 -15 3 -32 0 -38 -5 -16 -12 -41 0 -47 23 -3 10 3 30 14 43 10 13 19 30
20 38 0 7 7 -9 14 -37 7 -27 14 -47 15 -42z m-490 5 c0 -20 -4 -40 -10 -43 -6
-4 -10 16 -10 52 0 41 3 54 10 43 5 -8 10 -32 10 -52z m-202 -9 c4 -4 34 -3
67 1 65 8 75 2 67 -36 -4 -25 -4 -25 -107 -29 -17 0 -35 -3 -40 -7 -6 -3 -20
-2 -32 3 -32 12 -30 53 5 98 l27 36 3 -30 c2 -16 7 -33 10 -36z m7332 -139 c0
-11 -4 -20 -9 -20 -5 0 -7 9 -4 20 3 11 7 20 9 20 2 0 4 -9 4 -20z m-46 -20
c-6 -6 -10 -3 -10 10 0 13 4 16 10 10 7 -7 7 -13 0 -20z m-2013 -63 c-13 -13
-15 15 -3 53 7 24 7 23 10 -9 2 -18 -1 -38 -7 -44z m-245 -3 c-4 -13 -11 -24
-16 -24 -14 0 -12 37 2 63 11 20 12 20 16 4 2 -10 1 -29 -2 -43z m-106 6 c0
-22 -4 -40 -10 -40 -11 0 -13 39 -4 64 10 26 14 19 14 -24z m54 -4 c-3 -14
-10 -29 -15 -32 -10 -6 -12 36 -3 61 10 26 26 1 18 -29z m-209 -15 c-4 -17
-11 -31 -16 -31 -10 0 -12 25 -3 58 10 35 27 10 19 -27z m50 -9 c-5 -19 -9
-22 -15 -12 -8 13 -7 21 7 58 6 16 6 16 10 -1 3 -10 2 -30 -2 -45z m50 -521
c-3 -13 -9 -21 -12 -18 -8 9 -3 579 5 591 8 13 15 -539 7 -573z m1500 539 c-5
-23 -10 -29 -18 -21 -8 8 -7 18 3 36 17 32 24 25 15 -15z m36 -23 c-13 -13
-15 21 -3 50 6 15 8 13 10 -11 2 -16 -1 -33 -7 -39z m790 -40 c-8 -8 -11 4
-11 39 0 66 14 80 18 19 2 -26 -2 -53 -7 -58z m-2479 47 c-2 -13 -8 -27 -13
-30 -10 -6 -12 36 -3 61 10 24 22 0 16 -31z m1599 -24 c-9 -23 -10 -21 -10 16
-1 22 2 44 7 48 11 12 14 -37 3 -64z m-187 21 c-5 -22 -10 -29 -17 -22 -7 7
-7 19 2 37 15 34 23 26 15 -15z m-203 -44 c-13 -13 -15 15 -3 53 7 24 7 23 10
-9 2 -18 -1 -38 -7 -44z m150 20 c-17 -17 -22 -2 -9 29 11 28 12 29 16 5 2
-13 -1 -28 -7 -34z m-200 -30 c-13 -13 -15 31 -3 60 5 14 8 10 10 -16 2 -18
-1 -38 -7 -44z m-1641 -224 c-1 -258 -2 -285 -15 -263 -22 37 -12 550 11 550
2 0 4 -129 4 -287z m1557 71 c-3 -131 -10 -221 -16 -227 -8 -8 -11 50 -11 194
0 207 4 249 23 249 7 0 8 -69 4 -216z m673 116 c0 -53 -4 -90 -10 -90 -11 0
-14 162 -3 173 12 13 13 7 13 -83z m-489 -318 c-12 -20 -15 338 -3 378 4 14 8
-62 10 -168 1 -115 -2 -200 -7 -210z m205 219 c-3 -91 -6 -176 -6 -188 0 -13
-4 -23 -10 -23 -6 0 -10 64 -10 173 0 177 5 221 22 211 7 -4 8 -67 4 -173z
m-895 -68 c-1 -130 -6 -232 -11 -237 -11 -11 -14 413 -4 452 14 49 17 4 15
-215z m989 92 c0 -90 -4 -145 -10 -145 -6 0 -10 50 -10 129 0 116 4 161 16
161 2 0 4 -65 4 -145z m-440 95 c0 -16 -4 -30 -8 -30 -5 0 -7 14 -4 30 2 17 6
30 8 30 2 0 4 -13 4 -30z m1456 -10 c0 -12 -4 -16 -9 -11 -5 5 -6 14 -3 20 10
15 12 14 12 -9z m44 0 c0 -11 -4 -20 -10 -20 -5 0 -10 9 -10 20 0 11 5 20 10
20 6 0 10 -9 10 -20z m-93 -12 c-3 -8 -6 -5 -6 6 -1 11 2 17 5 13 3 -3 4 -12
1 -19z m-2902 -87 c-7 -26 -7 -26 -16 -3 -5 14 -4 33 3 50 11 27 12 27 16 3 2
-12 1 -35 -3 -50z m-45 50 c0 -25 -14 -71 -21 -71 -10 0 -12 41 -3 64 6 17 24
22 24 7z m3090 -5 c0 -8 -4 -18 -10 -21 -5 -3 -10 3 -10 14 0 12 5 21 10 21 6
0 10 -6 10 -14z m-1065 -43 c-4 -17 -9 -23 -16 -16 -7 7 -6 19 3 38 14 31 23
17 13 -22z m86 -6 c-13 -13 -15 11 -4 40 7 16 8 15 11 -6 2 -13 -1 -28 -7 -34z
m-2227 9 c-3 -14 -10 -26 -15 -26 -5 0 -6 7 -4 15 3 8 7 22 10 31 9 27 17 9 9
-20z m2196 27 c-1 -5 -7 -19 -15 -33 l-14 -25 3 30 c2 17 4 31 5 33 3 6 21 1
21 -5z m-2520 -40 c0 -31 -15 -61 -26 -51 -9 10 5 78 16 78 6 0 10 -12 10 -27z
m-110 -5 c0 -42 -13 -98 -21 -98 -10 0 -12 80 -3 104 9 24 24 19 24 -6z m50
-13 c0 -37 -14 -48 -23 -16 -4 17 8 51 18 51 3 0 5 -16 5 -35z m3577 13 c-3
-8 -6 -5 -6 6 -1 11 2 17 5 13 3 -3 4 -12 1 -19z m-3467 -28 c0 -22 -4 -40
-10 -40 -11 0 -13 39 -4 64 10 26 14 19 14 -24z m-620 -25 c0 -24 -5 -35 -15
-35 -17 0 -20 23 -5 51 15 27 20 24 20 -16z m-115 -43 c-5 -26 -9 -32 -16 -21
-13 20 -11 63 4 78 16 16 21 -8 12 -57z m59 24 c-3 -14 -10 -26 -15 -26 -10 0
-12 53 -2 64 13 12 24 -11 17 -38z m4057 3 c-5 -13 -10 -19 -10 -12 -1 15 10
45 15 40 3 -2 0 -15 -5 -28z m-90 -20 c-9 -23 -10 -22 -10 11 -1 23 2 31 9 24
7 -7 7 -19 1 -35z m-3516 -287 c-3 -7 -9 -11 -13 -8 -13 8 -11 277 2 306 9 20
12 -5 14 -130 1 -85 0 -160 -3 -168z m3642 296 c-3 -8 -6 -5 -6 6 -1 11 2 17
5 13 3 -3 4 -12 1 -19z m-4681 -54 c-3 -8 -10 -14 -16 -14 -14 0 -13 37 2 63
13 22 13 22 16 -6 2 -16 1 -35 -2 -43z m62 22 c-2 -15 -7 -28 -13 -29 -12 -2
-19 38 -10 60 9 25 27 1 23 -31z m637 -164 c-3 -13 -10 -20 -15 -17 -14 9 -12
169 3 202 11 25 12 19 15 -67 2 -52 0 -105 -3 -118z m-815 -57 c0 -199 -3
-245 -14 -245 -10 0 -14 44 -20 213 -7 207 0 277 25 277 5 0 9 -106 9 -245z
m588 60 c-4 -211 -22 -228 -26 -25 -3 149 1 190 18 190 7 0 9 -59 8 -165z
m3344 141 c3 -14 1 -31 -3 -38 -6 -8 -9 1 -9 25 0 42 6 48 12 13z m-137 -30
c-4 -20 -11 -34 -15 -31 -7 5 -5 28 6 64 9 27 15 2 9 -33z m86 -19 c-13 -13
-14 5 -3 43 l7 25 3 -29 c2 -16 -1 -33 -7 -39z m-4371 18 c0 -24 -5 -35 -15
-35 -15 0 -20 26 -9 54 11 28 24 17 24 -19z m56 -33 c-4 -3 -12 0 -18 6 -9 9
-8 18 3 39 l14 27 3 -33 c2 -18 1 -36 -2 -39z m4276 33 c-2 -14 -8 -25 -13
-25 -10 0 -11 7 -3 37 8 31 23 20 16 -12z m-4452 -219 c0 -169 -3 -247 -11
-252 -6 -3 -15 0 -20 7 -13 20 -11 446 1 470 25 47 30 12 30 -225z m666 178
c-4 -14 -11 -22 -16 -19 -13 8 -13 28 2 62 11 28 12 28 16 4 2 -12 1 -34 -2
-47z m-1176 -14 c0 -33 -3 -40 -20 -40 -17 0 -19 4 -14 28 6 25 22 52 30 52 2
0 4 -18 4 -40z m68 3 c-2 -27 -8 -39 -20 -41 -14 -3 -18 3 -18 25 0 28 15 53
33 53 4 0 7 -17 5 -37z m-130 -19 c-4 -35 -38 -48 -38 -14 0 12 5 31 11 42 14
27 32 9 27 -28z m630 -6 c-3 -35 -28 -52 -28 -20 0 28 10 52 22 52 5 0 8 -14
6 -32z m1256 -44 c-3 -13 -10 -24 -15 -24 -10 0 -12 34 -2 69 l6 25 9 -23 c4
-12 5 -34 2 -47z m56 21 c0 -24 -5 -35 -15 -35 -18 0 -20 41 -3 58 17 17 18
16 18 -23z m-1755 -343 c-4 -11 -8 -12 -20 -2 -12 10 -15 43 -15 173 0 139 2
163 18 180 16 18 17 11 20 -159 1 -98 0 -185 -3 -192z m1643 336 c-3 -35 -28
-52 -28 -20 0 28 10 52 22 52 5 0 8 -14 6 -32z m-2418 -14 c0 -31 -3 -35 -22
-32 -16 2 -24 11 -26 30 -3 25 4 31 41 37 4 0 7 -15 7 -35z m66 14 c-3 -13 -6
-26 -6 -30 0 -5 -9 -8 -20 -8 -23 0 -27 29 -8 48 21 21 41 15 34 -10z m64 -35
c0 -41 -3 -54 -10 -43 -11 17 -13 61 -4 84 11 28 14 18 14 -41z m-195 0 c-3
-27 -8 -57 -11 -67 -6 -18 -7 -18 -16 -2 -24 42 -28 79 -11 98 30 34 44 23 38
-29z m590 -291 c-5 -33 -10 -42 -23 -40 -15 3 -17 23 -20 167 -2 159 -2 165
20 188 l23 25 3 -149 c2 -81 0 -167 -3 -191z m3056 205 c-19 -19 -24 2 -10 45
l14 43 3 -39 c2 -21 -1 -43 -7 -49z m-431 18 c0 -30 -4 -55 -10 -55 -11 0 -14
69 -4 94 11 27 14 18 14 -39z m382 -2 c-2 -13 -8 -23 -13 -23 -11 0 -11 25 -2
59 6 22 7 23 13 6 4 -10 5 -29 2 -42z m-3662 -130 c0 -98 -5 -185 -10 -193 -6
-10 -10 -11 -10 -2 0 6 -6 12 -14 12 -19 0 -26 46 -26 178 0 99 3 119 21 148
11 19 25 34 30 34 5 0 9 -76 9 -177z m3119 110 c1 -37 -7 -63 -20 -63 -10 0
-12 73 -2 109 6 23 7 23 14 5 4 -10 8 -33 8 -51z m42 -56 c-13 -13 -15 41 -3
70 5 13 8 8 10 -21 2 -21 -1 -43 -7 -49z m65 27 c-4 -13 -11 -24 -16 -24 -14
0 -12 37 2 63 11 20 12 20 16 4 2 -10 1 -29 -2 -43z m-506 -13 c0 -38 -11 -66
-19 -52 -9 15 -1 81 10 81 5 0 9 -13 9 -29z m-172 -36 c-4 -46 -28 -61 -28
-18 0 15 3 38 6 51 10 35 26 11 22 -33z m62 15 c0 -25 -10 -50 -21 -50 -10 0
-12 40 -3 64 8 20 24 11 24 -14z m46 -36 c-3 -9 -10 -13 -15 -9 -10 6 -5 50 7
69 9 14 16 -40 8 -60z m4791 -26 c-3 -7 -5 -2 -5 12 0 14 2 19 5 13 2 -7 2
-19 0 -25z m-10147 -22 l0 -41 -76 -2 c-42 -1 -82 -7 -89 -13 -10 -8 -20 -8
-33 -1 -31 17 -42 -6 -42 -86 0 -77 8 -87 42 -56 19 17 20 16 37 -6 14 -18 20
-20 23 -10 3 10 20 13 56 12 31 -1 52 2 52 8 0 6 6 9 13 7 6 -3 14 -22 17 -43
6 -45 21 -54 48 -27 20 20 20 20 26 -1 7 -28 7 -126 0 -153 -5 -20 -7 -21 -35
-7 -20 10 -29 22 -29 39 0 25 -15 57 -37 81 -13 14 -35 16 -158 11 -23 -1 -41
10 -79 46 -52 50 -61 75 -50 135 8 49 108 144 144 138 14 -3 33 -2 42 2 10 3
42 7 73 7 l55 2 0 -42z m70 -21 c0 -37 -4 -65 -10 -65 -5 0 -10 7 -10 15 0 8
-4 15 -10 15 -15 0 -12 47 5 64 8 8 15 19 15 25 0 6 2 11 5 11 3 0 5 -29 5
-65z m3350 -80 c0 -48 -2 -55 -20 -55 -15 0 -20 7 -20 26 0 22 28 84 37 84 2
0 3 -25 3 -55z m128 3 c-2 -31 -8 -44 -20 -46 -22 -4 -25 37 -6 68 20 32 29
23 26 -22z m-588 -33 c0 -30 -4 -55 -10 -55 -11 0 -14 69 -4 94 11 27 14 18
14 -39z m521 -2 c-6 -13 -16 -21 -21 -18 -14 9 -13 48 2 63 19 19 33 -14 19
-45z m4370 -574 c-12 -29 -15 572 -3 611 4 14 8 -113 10 -281 1 -177 -2 -317
-7 -330z m-5087 509 c-6 -30 -11 -33 -33 -19 -16 10 -9 93 8 99 6 2 11 11 12
20 1 10 5 -3 10 -28 5 -25 7 -57 3 -72z m6947 -128 c-2 -74 -6 -125 -10 -112
-3 12 -4 96 -2 185 3 100 7 143 10 112 3 -27 4 -111 2 -185z m-6811 156 c0
-27 -21 -48 -37 -38 -15 9 -12 35 6 56 17 20 31 12 31 -18z m6407 12 c-3 -8
-6 -5 -6 6 -1 11 2 17 5 13 3 -3 4 -12 1 -19z m583 -35 c0 -68 -5 -67 -13 5
-4 30 -2 52 3 52 6 0 10 -25 10 -57z m-7069 -16 c-8 -8 -16 -6 -28 6 -11 11
-13 17 -5 17 7 0 12 6 12 14 0 8 6 16 13 19 15 5 22 -42 8 -56z m6306 31 c-3
-7 -5 -2 -5 12 0 14 2 19 5 13 2 -7 2 -19 0 -25z m312 -132 c-9 -8 -10 1 -5
38 3 27 7 65 8 85 1 20 4 3 5 -38 3 -48 0 -78 -8 -85z m-489 124 c0 -11 -4
-20 -8 -20 -4 0 -8 9 -8 20 0 11 4 20 8 20 4 0 8 -9 8 -20z m-1399 -53 c-13
-13 -15 21 -3 50 6 15 8 13 10 -11 2 -16 -1 -33 -7 -39z m1264 -59 c-1 -62 -2
-152 -3 -200 -1 -51 -6 -88 -12 -88 -11 0 -15 367 -4 394 14 37 21 -1 19 -106z
m-1409 34 c-13 -12 -18 9 -10 45 l8 38 4 -39 c2 -21 1 -41 -2 -44z m45 5 c-13
-13 -15 15 -3 53 7 24 7 23 10 -9 2 -18 -1 -38 -7 -44z m50 10 c-13 -13 -15
21 -3 50 6 15 8 13 10 -11 2 -16 -1 -33 -7 -39z m1670 -275 c-12 -20 -15 278
-3 318 4 14 8 -47 10 -138 1 -95 -2 -170 -7 -180z m-1816 -249 c-2 -7 -8 -13
-13 -13 -11 0 -5 531 6 570 4 14 8 -103 10 -260 1 -157 0 -290 -3 -297z m1905
343 c-7 -7 -10 23 -10 96 0 147 14 170 18 29 2 -69 -1 -118 -8 -125z m-870
177 c0 -35 -3 -44 -11 -36 -7 7 -9 25 -5 47 9 50 16 45 16 -11z m41 -10 c-9
-16 -10 -16 -11 4 0 12 3 30 7 40 7 16 8 16 11 -4 2 -12 -1 -30 -7 -40z m46
10 c-3 -10 -5 -4 -5 12 0 17 2 24 5 18 2 -7 2 -21 0 -30z m514 -294 c-7 -17
-10 27 -10 147 -1 94 2 174 7 178 11 11 14 -297 3 -325z m-2147 108 c-2 -94
-4 -218 -4 -275 0 -66 -4 -101 -10 -97 -11 7 -14 493 -4 532 15 57 22 -1 18
-160z m1691 133 c-2 -14 -4 -51 -4 -82 -1 -34 -5 -58 -12 -58 -10 0 -12 123
-2 169 7 31 22 7 18 -29z m-194 -72 c1 -174 -1 -208 -11 -208 -11 0 -14 239
-4 278 11 39 15 18 15 -70z m1549 12 c0 -22 -4 -40 -10 -40 -5 0 -10 18 -10
40 0 22 5 40 10 40 6 0 10 -18 10 -40z m-2949 -77 c-16 -29 -24 8 -9 43 l12
29 4 -27 c2 -15 -1 -35 -7 -45z m-47 20 c-7 -42 -11 -49 -20 -41 -8 9 7 78 18
78 5 0 6 -16 2 -37z m1496 -8 c0 -19 -4 -35 -10 -35 -11 0 -13 30 -4 54 10 25
14 19 14 -19z m41 -16 c-9 -23 -10 -23 -10 -2 -1 12 2 30 6 40 6 15 8 15 11 2
1 -8 -2 -26 -7 -40z m49 23 c-5 -2 -6 -11 -3 -20 4 -13 3 -14 -5 -3 -5 7 -7
22 -4 33 4 15 7 17 13 6 5 -7 4 -14 -1 -16z m-8697 -35 c6 4 32 8 57 9 62 4
127 19 145 34 13 11 15 5 15 -43 0 -53 -11 -79 -25 -58 -3 7 -15 7 -30 1 -13
-5 -53 -11 -87 -14 -35 -2 -75 -7 -91 -11 -18 -5 -35 -2 -51 9 -29 18 -26 44
12 95 l26 35 8 -32 c6 -22 13 -30 21 -25z m6998 -4 c-9 -16 -10 -16 -11 4 0
12 3 30 7 40 7 16 8 16 11 -4 2 -12 -1 -30 -7 -40z m-365 -39 c-10 -37 -28
-18 -20 19 3 18 9 37 13 42 9 14 14 -32 7 -61z m45 -7 c-13 -13 -15 31 -3 60
5 14 8 10 10 -16 2 -18 -1 -38 -7 -44z m1040 0 c-13 -13 -15 15 -3 53 7 24 7
23 10 -9 2 -18 -1 -38 -7 -44z m50 10 c-13 -13 -15 21 -3 50 6 15 8 13 10 -11
2 -16 -1 -33 -7 -39z m-1192 -9 c0 -55 -2 -59 -11 -35 -9 25 -4 97 7 97 3 0 5
-28 4 -62z m1042 -15 c-9 -15 -10 -13 -11 14 0 17 3 40 8 50 5 14 8 11 10 -14
2 -18 -1 -41 -7 -50z m50 4 c-13 -13 -15 31 -3 60 5 14 8 10 10 -16 2 -18 -1
-38 -7 -44z m1856 16 c-3 -10 -5 -4 -5 12 0 17 2 24 5 18 2 -7 2 -21 0 -30z
m-3337 -597 c-11 -11 -15 113 -11 389 4 292 16 244 19 -74 1 -196 -1 -308 -8
-315z m560 521 c0 -89 -7 -130 -21 -121 -10 6 -12 157 -3 191 12 45 24 10 24
-70z m-600 44 c0 -28 -15 -49 -27 -38 -8 8 7 67 18 67 5 0 9 -13 9 -29z
m-1329 -276 c0 -158 -2 -289 -5 -292 -2 -3 -9 -2 -15 2 -15 9 -15 539 0 567 6
11 13 18 15 15 3 -2 5 -134 5 -292z m1215 253 c-2 -24 -5 -50 -5 -58 -1 -13
-2 -13 -11 0 -18 27 -10 100 11 100 5 0 7 -19 5 -42z m54 7 c0 -19 -4 -35 -10
-35 -5 0 -10 16 -10 35 0 19 5 35 10 35 6 0 10 -16 10 -35z m434 -295 c-20
-67 -25 214 -7 300 5 23 9 -19 11 -120 1 -85 0 -166 -4 -180z m2223 253 c-3
-10 -5 -4 -5 12 0 17 2 24 5 18 2 -7 2 -21 0 -30z m-137 -18 c0 -19 -4 -35
-10 -35 -5 0 -10 16 -10 35 0 19 5 35 10 35 6 0 10 -16 10 -35z m-2632 -155
c-2 -105 -7 -170 -13 -170 -12 0 -19 169 -10 268 4 39 11 72 16 72 6 0 8 -69
7 -170z m2681 163 c0 -5 -4 -17 -9 -28 -8 -18 -9 -17 -9 8 -1 15 4 27 9 27 6
0 10 -3 9 -7z m38 -25 c-3 -7 -5 -2 -5 12 0 14 2 19 5 13 2 -7 2 -19 0 -25z
m-2062 -65 c-4 -25 -10 -32 -17 -25 -7 7 -6 22 3 49 14 44 24 29 14 -24z m46
-16 c-13 -13 -15 31 -3 60 5 14 8 10 10 -16 2 -18 -1 -38 -7 -44z m-1810 -20
c-18 -18 -24 21 -10 56 l14 32 3 -39 c2 -21 -1 -43 -7 -49z m65 17 c-3 -8 -10
-14 -16 -14 -14 0 -13 53 3 69 10 10 13 7 15 -14 2 -15 1 -33 -2 -41z m1647
14 c-3 -16 -9 -28 -14 -28 -10 0 -11 25 -2 59 8 33 23 5 16 -31z m-1827 -24
c-4 -14 -11 -22 -16 -19 -9 5 -8 13 6 53 9 25 17 -3 10 -34z m2915 -47 c-13
-13 -15 31 -3 60 5 14 8 10 10 -16 2 -18 -1 -38 -7 -44z m100 10 c-8 -8 -11
-2 -11 19 0 40 14 54 18 19 2 -15 -1 -32 -7 -38z m-150 -10 c-13 -13 -15 21
-3 50 6 15 8 13 10 -11 2 -16 -1 -33 -7 -39z m100 10 c-13 -13 -15 11 -4 40 7
16 8 15 11 -6 2 -13 -1 -28 -7 -34z m-3321 26 c0 -10 -3 -28 -6 -41 -5 -17
-10 -20 -20 -11 -7 6 -11 17 -8 25 2 8 6 21 9 29 6 21 25 19 25 -2z m-66 -37
c-3 -14 -10 -26 -14 -26 -16 0 -20 18 -10 46 14 35 34 18 24 -20z m-129 -465
c-4 -10 -9 -11 -16 -4 -7 7 -13 94 -15 227 -4 193 -3 219 13 248 18 32 18 29
21 -212 1 -134 0 -251 -3 -259z m255 266 c0 -196 -7 -254 -27 -234 -4 5 -9 84
-11 176 -4 165 9 288 29 276 5 -4 9 -99 9 -218z m2646 125 c-13 -12 -16 8 -9
49 l8 44 3 -44 c2 -23 1 -46 -2 -49z m59 42 c-5 -39 -11 -51 -21 -41 -9 9 5
77 16 77 6 0 8 -16 5 -36z m-3395 -25 c0 -33 -3 -40 -17 -37 -21 4 -21 40 -1
63 18 20 18 20 18 -26z m-60 -15 c0 -12 -7 -24 -15 -27 -25 -10 -29 13 -10 56
6 15 10 16 16 5 5 -7 9 -23 9 -34z m2867 -64 l-11 -25 -4 24 c-2 13 0 45 4 70
l8 46 6 -45 c4 -26 3 -56 -3 -70z m165 38 c-2 -16 -8 -28 -13 -28 -11 0 -11
25 -2 71 6 32 7 33 13 9 3 -14 4 -37 2 -52z m-2481 19 c-13 -13 -15 1 -4 30 7
17 8 17 11 -1 2 -10 -1 -23 -7 -29z m-621 -12 c0 -50 -10 -57 -29 -21 -10 18
-10 29 -2 45 19 34 31 24 31 -24z m3050 -5 c0 -22 -4 -40 -10 -40 -11 0 -13
39 -4 64 10 26 14 19 14 -24z m-3310 -10 c0 -27 -4 -40 -14 -40 -20 0 -26 36
-9 59 20 29 23 27 23 -19z m455 -52 c4 -102 -3 -148 -21 -148 -11 0 -14 21
-14 95 0 82 14 154 28 140 2 -2 6 -41 7 -87z m2801 36 c-4 -13 -11 -24 -16
-24 -14 0 -12 37 2 63 11 20 12 20 16 4 2 -10 1 -29 -2 -43z m-3316 11 c0 -28
-4 -35 -19 -35 -20 0 -21 7 -7 48 11 34 26 26 26 -13z m-200 -25 c0 -33 -3
-40 -20 -40 -11 0 -20 7 -20 15 0 15 28 65 36 65 2 0 4 -18 4 -40z m330 -192
c0 -222 -6 -266 -32 -240 -9 9 -14 65 -17 198 -3 161 -1 191 14 225 10 21 22
39 27 39 4 0 8 -100 8 -222z m-395 170 c-2 -27 -30 -36 -39 -13 -8 22 15 57
29 45 7 -5 11 -20 10 -32z m3082 -20 c-2 -13 -4 -3 -4 22 0 25 2 35 4 23 2
-13 2 -33 0 -45z m-3217 -208 c0 -156 -4 -251 -10 -255 -6 -3 -17 0 -25 9 -24
23 -22 436 2 476 9 16 20 27 25 24 4 -3 8 -117 8 -254z m660 86 c0 -89 -3
-166 -7 -169 -3 -4 -12 -2 -20 4 -16 14 -19 273 -3 314 21 56 30 12 30 -149z
m2456 112 c-3 -13 -5 -26 -5 -30 -1 -5 -5 -8 -11 -8 -11 0 -13 33 -3 69 5 19
7 20 15 8 4 -9 6 -26 4 -39z m45 -31 c-13 -13 -15 41 -3 70 5 13 8 8 10 -21 2
-21 -1 -43 -7 -49z m-2891 -147 c0 -205 -3 -240 -21 -240 -21 0 -28 57 -30
222 -2 147 0 178 15 206 9 18 21 30 26 27 6 -4 10 -93 10 -215z m60 175 c0
-19 -4 -35 -10 -35 -11 0 -13 30 -4 54 10 25 14 19 14 -19z m-740 -244 c0
-143 -4 -262 -8 -265 -11 -7 -27 5 -39 29 -6 12 -9 99 -7 224 2 174 5 209 21
238 9 18 21 33 25 33 5 0 8 -117 8 -259z m467 197 c-2 -13 -4 -5 -4 17 -1 22
1 32 4 23 2 -10 2 -28 0 -40z m-2673 10 c3 -13 6 -195 6 -405 l0 -381 -48 2
c-26 1 -56 7 -66 13 -19 10 -19 12 -3 46 9 19 17 38 17 42 0 3 7 13 16 22 13
13 15 40 12 164 -2 105 -7 152 -16 161 -8 8 -38 13 -77 13 -62 0 -65 -1 -71
-27 -7 -34 -43 -39 -51 -8 -3 11 -10 17 -16 13 -16 -10 1 59 18 77 9 8 32 16
53 17 20 2 51 4 69 5 17 2 43 14 56 26 22 21 25 33 29 112 3 79 5 90 28 109
32 26 36 26 44 -1z m1934 -213 c0 -104 -3 -200 -6 -212 l-7 -21 -25 19 c-24
20 -24 23 -26 194 -2 188 2 225 21 225 7 0 16 8 20 18 16 36 23 -34 23 -223z
m1532 165 c0 -33 -3 -40 -20 -40 -16 0 -19 5 -16 26 5 23 23 54 32 54 2 0 4
-18 4 -40z m-60 -4 c0 -42 -27 -57 -36 -21 -6 25 9 55 27 55 5 0 9 -15 9 -34z
m-68 -15 c-6 -40 -32 -50 -32 -13 0 28 17 55 30 47 4 -2 5 -18 2 -34z m-1907
-22 c0 -27 -4 -34 -20 -35 -11 0 -32 -4 -48 -8 -18 -6 -32 -4 -42 4 -20 17
-26 10 -32 -39 -6 -44 -18 -51 -39 -24 -7 10 -16 14 -21 10 -4 -5 -9 -82 -11
-173 -3 -142 -1 -164 12 -164 9 0 23 14 31 31 9 17 18 29 20 27 1 -1 5 -25 8
-52 7 -56 13 -66 22 -37 7 23 44 38 55 22 4 -8 14 -6 32 8 29 23 38 19 38 -20
0 -39 -16 -46 -117 -52 -17 -1 -34 -5 -38 -9 -13 -12 -45 16 -45 39 0 16 -6
23 -20 23 -10 0 -30 11 -44 25 -24 23 -24 28 -22 162 2 137 2 138 33 183 53
76 84 102 116 97 15 -2 30 0 33 4 2 4 20 5 39 2 24 -4 35 -2 35 7 0 6 6 10 13
8 6 -3 12 -20 12 -39z m75 -9 c0 -14 -4 -36 -7 -50 -7 -22 -8 -21 -13 15 -7
52 -1 92 11 73 5 -7 9 -24 9 -38z m3125 -38 c-4 -11 -9 -12 -17 -4 -9 9 -8 22
3 54 l14 43 3 -39 c2 -21 1 -45 -3 -54z m-55 33 c0 -35 -4 -45 -16 -45 -13 0
-15 7 -9 37 13 68 25 72 25 8z m1091 -77 c-8 -30 -9 -28 -10 28 -1 33 2 64 7
68 11 12 14 -58 3 -96z m178 55 c0 -16 -4 -37 -8 -47 -12 -31 -24 -1 -17 40 8
41 26 46 25 7z m-68 -66 c-13 -13 -15 41 -3 70 5 13 8 8 10 -21 2 -21 -1 -43
-7 -49z m-48 26 c-3 -18 -9 -33 -14 -33 -10 0 -11 25 -3 58 9 34 23 13 17 -25z
m-5033 -25 c0 -43 11 -47 41 -17 11 11 22 19 25 17 9 -9 15 -336 7 -373 -8
-36 -12 -40 -36 -37 -27 3 -30 -2 -39 -63 -2 -11 -12 -21 -23 -22 -11 -1 -50
-7 -87 -12 -77 -12 -96 -8 -104 24 -3 13 -11 22 -17 20 -26 -10 -59 31 -67 81
-8 55 -5 243 5 273 9 28 57 81 73 81 7 0 11 4 8 9 -3 5 6 21 21 37 l26 28 18
-23 c14 -17 19 -19 19 -8 0 19 30 30 62 22 16 -4 29 -1 38 10 18 21 30 3 30
-47z m2833 -72 c-3 -14 -9 -26 -13 -26 -14 0 -23 41 -11 53 6 6 11 20 12 32 1
16 2 15 9 -6 4 -15 5 -38 3 -53z m-190 -33 c-3 -13 -11 -23 -19 -23 -18 0 -18
46 -1 83 l12 26 7 -32 c4 -18 4 -42 1 -54z m65 25 c-4 -40 -38 -54 -38 -16 0
24 16 48 33 48 4 0 7 -15 5 -32z m62 2 c0 -18 -5 -30 -13 -30 -16 0 -19 30 -4
48 14 18 17 15 17 -18z m-3778 -232 c2 -90 3 -188 3 -220 0 -31 3 -54 8 -51 4
2 7 9 7 16 0 6 12 22 27 35 l27 23 12 -38 c7 -21 12 -31 13 -22 1 14 49 45 56
37 5 -5 7 -31 6 -62 -1 -23 -4 -27 -22 -23 -11 3 -33 1 -49 -5 -24 -8 -36 -5
-72 16 -93 54 -90 46 -86 241 3 158 5 175 23 194 41 41 45 31 47 -141z m2318
40 c0 -31 -4 -38 -19 -38 -37 0 -44 25 -19 63 26 41 38 33 38 -25z m4860 -65
c-9 -14 -10 -10 -6 22 3 22 7 54 8 70 1 17 3 6 5 -22 2 -29 -1 -61 -7 -70z
m-4795 57 c-8 -26 -52 -28 -50 -2 0 9 4 17 9 17 4 0 12 9 18 19 10 17 11 17
20 2 5 -9 6 -25 3 -36z m-566 -12 c0 -24 -4 -52 -8 -63 -6 -15 -9 -10 -13 23
-4 23 -4 51 -1 62 9 35 23 21 22 -22z m4831 -80 c0 -29 -4 -48 -9 -42 -8 8 -3
94 5 94 2 0 4 -23 4 -52z m477 -120 c-2 -18 -4 -6 -4 27 0 33 2 48 4 33 2 -15
2 -42 0 -60z m-1358 -35 c-1 -54 -2 -56 -10 -23 -8 33 -5 80 6 80 3 0 5 -26 4
-57z m838 -5 c-3 -7 -5 -2 -5 12 0 14 2 19 5 13 2 -7 2 -19 0 -25z m-7 -44 c0
-14 -4 -23 -9 -20 -5 3 -7 15 -4 26 7 28 13 25 13 -6z m-2810 -49 c0 -19 -4
-35 -9 -35 -14 0 -21 54 -8 62 17 11 17 11 17 -27z m3497 -2 c-3 -10 -5 -4 -5
12 0 17 2 24 5 18 2 -7 2 -21 0 -30z m-2328 -70 c-11 -13 -14 -13 -20 4 -4 11
-4 32 -1 49 l6 29 7 -30 7 -30 2 35 3 35 4 -38 c3 -22 -1 -45 -8 -54z m521
-53 l-11 -25 6 25 c2 14 6 41 7 60 l1 35 4 -35 c2 -20 -1 -47 -7 -60z m-2333
48 c-3 -7 -5 -2 -5 12 0 14 2 19 5 13 2 -7 2 -19 0 -25z m2564 -48 c-9 -23
-10 -21 -10 16 -1 22 2 44 7 48 11 12 14 -37 3 -64z m836 23 c-3 -10 -5 -4 -5
12 0 17 2 24 5 18 2 -7 2 -21 0 -30z m-3420 -5 c-3 -7 -5 -2 -5 12 0 14 2 19
5 13 2 -7 2 -19 0 -25z m2013 -30 c0 -27 -21 -120 -27 -114 -3 2 -2 39 2 81 5
49 11 72 16 64 5 -8 9 -22 9 -31z m-799 0 c-3 -21 -6 -26 -9 -15 -3 17 3 47
11 47 2 0 1 -15 -2 -32z m-608 -30 c-7 -78 -11 -82 -12 -10 -1 34 3 62 8 62 4
0 6 -24 4 -52z m-26 -50 c-2 -18 -4 -6 -4 27 0 33 2 48 4 33 2 -15 2 -42 0
-60z m1194 -21 c-6 -6 -11 -20 -11 -31 0 -10 -3 -16 -7 -12 -10 10 -3 110 8
114 5 2 10 11 11 20 1 10 3 -5 5 -32 2 -27 -1 -54 -6 -59z m5026 51 c-3 -7 -5
-2 -5 12 0 14 2 19 5 13 2 -7 2 -19 0 -25z m-6847 -90 c-6 -38 -15 -70 -20
-73 -4 -3 -11 15 -14 40 -6 34 -2 54 15 92 29 61 37 37 19 -59z m2347 20 c-2
-13 -4 -3 -4 22 0 25 2 35 4 23 2 -13 2 -33 0 -45z m235 5 c-1 -27 -6 -59 -9
-73 -6 -20 -8 -15 -13 25 -5 46 5 95 19 95 3 0 5 -21 3 -47z m-1362 -24 c0
-19 -4 -28 -11 -23 -8 5 -9 -6 -4 -35 4 -22 3 -41 -2 -41 -11 0 -16 64 -8 102
9 37 25 36 25 -3z m1186 -47 c-11 -10 -15 4 -8 28 l7 25 3 -23 c2 -13 1 -26
-2 -30z m3995 -140 c-8 -12 -10 3 -11 58 0 110 14 145 18 42 2 -45 -2 -90 -7
-100z m-5813 67 c-7 -92 -28 -118 -28 -33 0 68 8 104 23 104 6 0 8 -26 5 -71z
m1417 52 c3 -5 1 -12 -5 -16 -5 -3 -10 1 -10 9 0 18 6 21 15 7z m-2473 -53 c3
-106 -4 -233 -15 -253 -6 -11 -10 -23 -9 -27 1 -5 -2 -8 -8 -8 -5 0 -10 6 -11
13 -11 136 -13 147 -31 129 -18 -18 -38 -14 -38 7 0 29 28 47 51 33 16 -10 19
-9 19 4 0 9 7 30 15 48 14 29 14 36 0 62 -20 38 -19 44 5 44 17 0 20 -7 22
-52z m-142 17 c0 -14 -4 -25 -9 -25 -6 0 -8 36 -2 48 5 10 11 -2 11 -23z m50
13 c0 6 5 12 11 12 18 0 5 -33 -13 -36 -13 -1 -18 4 -18 19 0 18 2 19 10 7 6
-10 10 -11 10 -2z m2327 -35 c-3 -10 -5 -2 -5 17 0 19 2 27 5 18 2 -10 2 -26
0 -35z m-3674 5 c-6 -31 -24 -58 -37 -58 -10 0 -7 15 9 54 19 45 37 47 28 4z
m8046 -5 c-1 -16 -5 -39 -9 -53 -6 -20 -8 -14 -9 28 -1 28 3 52 9 52 6 0 10
-12 9 -27z m-522 -15 c-3 -8 -6 -5 -6 6 -1 11 2 17 5 13 3 -3 4 -12 1 -19z
m333 -110 c0 -73 -4 -126 -9 -118 -7 14 -3 250 5 250 2 0 4 -60 4 -132z
m-6016 4 c-4 -29 -10 -55 -15 -57 -4 -3 -6 -12 -3 -19 3 -8 1 -17 -4 -20 -16
-10 -18 112 -3 163 l14 46 9 -30 c4 -16 5 -54 2 -83z m5593 71 c-3 -10 -5 -4
-5 12 0 17 2 24 5 18 2 -7 2 -21 0 -30z m143 -65 c0 -91 -7 -100 -14 -18 -5
50 0 100 10 100 2 0 4 -37 4 -82z m-6835 30 c-6 -23 -9 -24 -31 -14 -30 14
-31 34 -1 45 28 11 40 0 32 -31z m5656 -31 c-13 -13 -15 15 -3 53 7 24 7 23
10 -9 2 -18 -1 -38 -7 -44z m840 42 c-9 -22 -10 -22 -10 -3 -1 11 2 24 6 27
12 12 14 0 4 -24z m-6571 -2 c0 -7 -5 -19 -10 -27 -9 -13 -10 -13 -10 0 0 13
-1 13 -10 0 -8 -12 -10 -10 -10 10 0 19 6 26 20 27 11 1 20 -4 20 -10z m107
-9 c-3 -8 -6 -5 -6 6 -1 11 2 17 5 13 3 -3 4 -12 1 -19z m2280 -30 c-2 -13 -4
-5 -4 17 -1 22 1 32 4 23 2 -10 2 -28 0 -40z m-3810 6 c-10 -62 -47 -88 -47
-34 0 36 19 70 39 70 10 0 12 -9 8 -36z m688 -1 c-6 -39 -25 -60 -36 -41 -9
14 -5 39 6 38 5 -1 12 8 17 19 12 34 20 24 13 -16z m665 18 c0 -15 -5 -18 -21
-14 -21 6 -21 7 -4 20 24 17 25 17 25 -6z m6406 -18 c-11 -11 -17 4 -9 23 7
18 8 18 11 1 2 -10 1 -21 -2 -24z m41 0 c-3 -10 -5 -4 -5 12 0 17 2 24 5 18 2
-7 2 -21 0 -30z m253 -141 c0 -92 -5 -174 -10 -182 -6 -10 -10 48 -10 173 0
123 3 186 10 182 6 -4 10 -72 10 -173z m90 32 c0 -87 -4 -133 -10 -129 -17 11
-11 265 6 265 2 0 4 -61 4 -136z m-1231 109 c0 -10 -4 -27 -9 -38 -7 -16 -9
-13 -9 18 -1 20 4 37 9 37 6 0 10 -8 9 -17z m741 -407 c-12 -12 -14 381 -2
411 4 10 8 -76 10 -191 1 -133 -1 -213 -8 -220z m1587 402 c-3 -8 -6 -5 -6 6
-1 11 2 17 5 13 3 -3 4 -12 1 -19z m-7187 -12 c0 -19 -5 -24 -20 -23 -24 2
-24 2 -3 27 22 25 23 25 23 -4z m4746 -54 c-13 -12 -17 8 -9 44 l8 39 3 -39
c2 -21 1 -41 -2 -44z m50 10 c-12 -11 -16 6 -9 39 l8 34 3 -33 c2 -19 1 -36
-2 -40z m1007 -160 c-4 -92 -10 -157 -14 -150 -11 16 -11 162 -2 289 11 155
23 52 16 -139z m-1113 -370 c-11 -20 -14 529 -2 568 4 14 8 -105 10 -263 1
-176 -2 -295 -8 -305z m2047 496 c-2 -18 -4 -6 -4 27 0 33 2 48 4 33 2 -15 2
-42 0 -60z m-2091 14 c-12 -12 -18 8 -10 35 l8 28 4 -28 c2 -16 1 -31 -2 -35z
m-51 21 c-2 -16 -4 -31 -4 -35 -1 -5 -5 -8 -10 -8 -5 0 -8 8 -6 18 2 9 4 25 4
35 1 9 5 17 10 17 5 0 8 -12 6 -27z m2592 5 c-3 -8 -6 -5 -6 6 -1 11 2 17 5
13 3 -3 4 -12 1 -19z m-7971 -44 c-8 -21 -36 -17 -36 5 0 11 8 27 18 37 16 17
17 17 20 -5 2 -12 1 -29 -2 -37z m1924 21 c0 -25 -4 -35 -16 -35 -10 0 -12 4
-7 13 4 6 8 17 9 22 0 6 2 16 2 23 4 26 12 10 12 -23z m3402 0 c-2 -19 -8 -35
-13 -35 -10 0 -11 16 -3 48 10 35 20 26 16 -13z m-6667 -46 c-9 -45 -33 -79
-44 -61 -10 17 -2 61 17 90 20 31 35 14 27 -29z m7226 -387 c-12 -20 -15 396
-3 425 4 10 8 -78 10 -195 1 -128 -2 -220 -7 -230z m-6541 385 c0 -33 -31 -83
-43 -70 -9 9 3 54 22 80 21 29 21 29 21 -10z m1302 -7 c-5 -32 -9 -35 -30 -22
-13 9 -6 42 12 54 17 11 23 1 18 -32z m-698 -7 c-3 -21 -9 -59 -14 -84 -11
-56 -1 -226 12 -207 6 9 8 3 6 -16 -2 -24 -8 -30 -30 -33 -22 -3 -29 1 -34 21
-3 13 -12 27 -19 30 -20 7 -28 67 -20 144 7 59 9 64 18 42 10 -23 11 -21 16
25 6 50 12 64 40 97 23 27 30 22 25 -19z m1316 -31 c0 -46 -3 -59 -15 -59 -10
0 -15 10 -15 29 0 15 5 28 10 28 6 0 9 3 9 8 -3 16 1 52 6 52 3 0 5 -26 5 -58z
m3590 -181 c0 -231 -7 -344 -21 -335 -10 6 -12 506 -3 541 16 60 24 -8 24
-206z m-4230 173 c0 -8 -4 -12 -10 -9 -5 3 -10 10 -10 16 0 5 5 9 10 9 6 0 10
-7 10 -16z m-37 -79 c1 -42 -1 -79 -5 -81 -4 -3 -16 1 -28 8 -28 18 -28 86 0
116 11 12 20 27 20 33 0 7 3 10 6 7 3 -3 6 -41 7 -83z m277 58 c-1 -36 -16
-112 -23 -120 -4 -3 -14 0 -22 7 -12 10 -14 24 -9 59 10 68 54 112 54 54z
m-2280 -55 c0 -11 -10 -36 -21 -55 -19 -30 -23 -33 -31 -18 -14 23 -1 82 20
94 21 12 32 5 32 -21z m687 -5 c-8 -49 -27 -67 -27 -26 0 38 9 63 22 63 7 0 8
-14 5 -37z m5674 -46 c-13 -13 -15 15 -3 53 7 24 7 23 10 -9 2 -18 -1 -38 -7
-44z m-50 -4 c-9 -15 -10 -12 -11 18 0 20 3 39 8 43 11 12 14 -42 3 -61z
m-5664 15 c-3 -8 -6 -5 -6 6 -1 11 2 17 5 13 3 -3 4 -12 1 -19z m5554 -41
c-13 -13 -15 21 -3 50 6 15 8 13 10 -11 2 -16 -1 -33 -7 -39z m2126 31 c-3 -7
-5 -2 -5 12 0 14 2 19 5 13 2 -7 2 -19 0 -25z m-6267 -19 c0 -31 -16 -47 -31
-32 -14 14 -1 60 17 60 9 0 14 -11 14 -28z m140 17 c0 -8 -4 -17 -9 -21 -12
-7 -24 12 -16 25 9 15 25 12 25 -4z m-86 -12 c12 -5 13 -9 3 -19 -14 -15 -27
-10 -27 11 0 16 2 16 24 8z m-2203 -102 c-6 -2 -11 -9 -11 -16 0 -7 -7 -13
-15 -13 -24 0 -19 64 8 96 l22 27 3 -45 c2 -26 -1 -47 -7 -49z m5969 58 c0
-22 -4 -40 -10 -40 -11 0 -13 39 -4 64 10 26 14 19 14 -24z m-54 -26 c-10 -37
-29 -30 -21 9 4 17 10 37 13 42 9 15 15 -23 8 -51z m-65 -61 c-8 -14 -10 -8
-11 29 0 67 14 96 18 36 2 -26 -2 -56 -7 -65z m-5147 38 c-4 -16 -14 -37 -24
-46 -16 -15 -18 -14 -24 11 -5 19 -1 36 16 60 26 38 42 26 32 -25z m5326 -58
c0 -95 -7 -136 -21 -127 -18 11 -6 214 12 214 5 0 9 -39 9 -87z m-4440 37 c0
-23 -22 -35 -45 -26 -18 7 -9 33 13 39 30 8 32 7 32 -13z m-77 -7 c9 -15 -2
-43 -18 -43 -13 0 -25 21 -25 45 0 16 32 15 43 -2z m3889 -65 c-14 -14 -21 24
-9 52 11 25 11 24 15 -9 2 -18 -1 -38 -6 -43z m59 -25 c-8 -14 -10 -7 -11 33
0 28 3 54 8 58 11 12 14 -72 3 -91z m349 -51 c0 -139 -5 -182 -21 -182 -10 0
-12 272 -3 307 14 53 24 2 24 -125z m-460 103 c0 -19 -4 -35 -10 -35 -11 0
-13 30 -4 54 10 25 14 19 14 -19z m-50 1 c0 -31 -10 -56 -21 -56 -10 0 -12 40
-3 64 9 24 24 19 24 -8z m-5365 -49 c-12 -57 -16 -67 -36 -77 -18 -10 -19 -7
-19 37 0 35 6 55 23 75 18 22 23 24 30 12 5 -8 6 -29 2 -47z m682 -19 c-3 -8
-6 -5 -6 6 -1 11 2 17 5 13 3 -3 4 -12 1 -19z m4621 -58 c-3 -81 -13 -103 -24
-53 -8 36 5 133 17 133 6 0 9 -33 7 -80z m723 7 c-13 -13 -15 21 -3 50 6 15 8
13 10 -11 2 -16 -1 -33 -7 -39z m-41 41 c0 -23 -12 -58 -20 -58 -4 0 -6 10 -5
23 1 12 3 28 4 35 0 6 6 12 11 12 6 0 10 -6 10 -12z m-60 -33 c0 -19 -4 -35
-10 -35 -11 0 -14 53 -3 63 11 12 13 8 13 -28z m-6021 -132 c-7 -12 -16 -20
-21 -17 -4 3 -8 -1 -8 -8 0 -11 -2 -11 -9 0 -12 19 3 89 25 113 19 21 19 21
22 -22 2 -23 -2 -53 -9 -66z m701 8 c-14 -26 -40 -16 -40 15 0 13 10 36 23 50
l22 26 3 -36 c2 -19 -2 -44 -8 -55z m4751 2 c-11 -42 -23 -11 -14 39 6 40 7
41 14 16 4 -16 4 -40 0 -55z m119 32 c0 -25 -4 -45 -10 -45 -11 0 -14 73 -3
83 11 12 13 8 13 -38z m1000 12 c0 -12 -5 -29 -10 -37 -7 -11 -10 -3 -10 28 0
26 4 41 10 37 6 -3 10 -16 10 -28z m50 -2 c0 -19 -4 -35 -10 -35 -11 0 -13 30
-4 54 10 25 14 19 14 -19z m-1110 -15 c0 -22 -4 -40 -10 -40 -11 0 -13 39 -4
64 10 26 14 19 14 -24z m120 -58 c0 -55 -9 -92 -21 -92 -10 0 -12 93 -3 127
10 37 24 16 24 -35z m551 -27 c-8 -25 -9 -21 -9 30 0 50 1 55 9 30 5 -17 5
-42 0 -60z m-161 0 c0 -30 -4 -55 -10 -55 -11 0 -14 69 -4 94 11 27 14 18 14
-39z m101 -28 c-13 -13 -15 15 -3 53 7 24 7 23 10 -9 2 -18 -1 -38 -7 -44z
m-41 31 c0 -26 -16 -55 -25 -47 -8 8 6 69 16 69 5 0 9 -10 9 -22z m-6148 -43
c0 -26 -4 -51 -9 -56 -16 -16 -43 2 -43 28 0 25 38 89 47 79 3 -2 5 -25 5 -51z
m703 45 c9 -15 -16 -43 -27 -32 -10 10 0 42 12 42 5 0 12 -5 15 -10z m2266
-637 c-7 -14 -10 -13 -22 8 -11 19 -14 81 -13 284 1 236 3 263 20 295 l19 35
3 -303 c1 -167 -2 -310 -7 -319z m2660 490 c-8 -15 -10 -10 -11 23 0 22 3 44
8 48 11 12 14 -52 3 -71z m-161 18 c0 -22 -6 -44 -15 -51 -17 -14 -19 -1 -9
62 8 47 24 39 24 -11z m101 -34 c-13 -13 -15 31 -3 60 5 14 8 10 10 -16 2 -18
-1 -38 -7 -44z m-5641 23 c0 -35 -34 -61 -44 -33 -8 20 3 55 15 48 5 -4 9 -1
9 4 0 6 5 11 10 11 6 0 10 -13 10 -30z m5586 -28 c-12 -11 -17 7 -9 34 l8 29
3 -28 c2 -16 1 -31 -2 -35z m-2411 -40 c-6 -24 -8 -25 -16 -9 -7 12 -6 27 3
48 12 27 13 28 16 9 2 -12 1 -34 -3 -48z m-55 26 c0 -36 -8 -52 -27 -55 -16
-4 -16 11 -1 54 15 42 28 42 28 1z m-141 -54 c-13 -34 -24 -16 -14 23 4 17 10
22 16 16 6 -6 6 -20 -2 -39z m-1109 -191 c0 -43 -12 -56 -35 -39 -18 13 -18
15 -2 40 22 34 37 33 37 -1z m-74 -19 c9 -34 -10 -54 -32 -32 -13 12 -14 20
-5 37 16 28 29 27 37 -5z m-141 -264 c0 -259 -5 -292 -39 -257 -13 12 -16 53
-17 239 -1 194 1 229 16 257 33 66 40 27 40 -239z m61 122 c-3 -3 -15 3 -26
13 -22 20 -19 52 9 72 14 10 16 6 19 -34 2 -25 1 -48 -2 -51z m-578 5 c2 -27
-1 -39 -13 -43 -27 -11 -44 16 -33 54 13 47 42 40 46 -11z m-68 -23 c0 -27
-15 -34 -52 -23 -19 5 -28 3 -32 -7 -3 -8 -14 -14 -25 -14 -28 0 -35 57 -8 72
17 8 23 6 38 -13 12 -15 19 -19 19 -10 0 8 8 23 17 33 16 18 18 18 30 2 7 -10
13 -28 13 -40z m-162 17 c8 -5 12 -21 10 -37 -2 -23 -8 -29 -28 -29 -18 0 -26
6 -28 23 -3 22 13 52 27 52 3 0 12 -4 19 -9z m311 -276 c0 -115 -4 -169 -14
-190 -7 -16 -14 -24 -14 -17 -1 7 -5 11 -10 7 -17 -10 -20 10 -22 146 -1 74
-6 143 -10 154 -7 17 -8 17 -8 3 -1 -19 -15 -22 -41 -10 -17 7 -18 32 -5 70 9
26 30 29 43 5 8 -13 12 -4 22 40 6 33 18 61 28 66 15 9 18 2 24 -52 3 -34 6
-134 7 -222z m1895 228 c-4 -21 -11 -30 -20 -26 -13 5 -11 41 4 66 10 19 22
-11 16 -40z m57 -26 c-8 -8 -11 -1 -11 24 0 46 14 60 18 19 2 -18 -1 -37 -7
-43z m-2723 -94 c3 -86 2 -91 -17 -86 -29 8 -42 102 -21 158 20 52 35 23 38
-72z m606 41 c18 -7 20 -22 7 -58 -8 -18 -15 -23 -30 -19 -23 6 -27 33 -11 64
12 21 12 21 34 13z m-66 -43 c2 -19 1 -49 -2 -67 -5 -26 -10 -31 -26 -27 -25
7 -33 33 -24 80 9 49 12 55 32 51 11 -2 18 -15 20 -37z m-926 -80 c3 -84 -3
-100 -31 -82 -19 12 -27 140 -11 171 22 40 38 5 42 -89z m308 33 c11 -28 12
-215 1 -253 -6 -23 -8 -21 -26 19 -30 67 -26 260 5 260 6 0 15 -12 20 -26z
m-226 -113 c4 -60 4 -132 0 -161 l-7 -52 -21 21 c-19 20 -21 33 -21 144 0 128
5 157 28 157 11 0 16 -26 21 -109z m775 -36 c-1 -96 -5 -128 -16 -137 -12 -10
-18 -9 -29 7 -17 22 -20 209 -4 250 8 22 13 24 30 15 19 -10 21 -20 19 -135z
m221 -81 c0 -27 -4 -32 -20 -31 -16 1 -20 8 -20 38 0 32 3 36 20 32 15 -4 20
-14 20 -39z m-912 -152 c-1 -46 -5 -65 -16 -70 -28 -10 -42 28 -42 112 0 96 6
124 29 128 13 3 17 -8 23 -52 4 -30 7 -84 6 -118z m760 114 c-2 -23 -8 -31
-23 -31 -24 0 -32 34 -15 65 16 30 42 7 38 -34z m82 35 c0 -23 -21 -61 -34
-61 -14 0 -26 36 -18 58 4 14 52 17 52 3z m-772 -100 c3 -114 0 -126 -28 -109
-17 11 -20 23 -20 79 0 92 9 131 29 127 13 -3 17 -20 19 -97z m6409 -713 c-3
-7 -5 -2 -5 12 0 14 2 19 5 13 2 -7 2 -19 0 -25z m-2178 -180 c0 -33 -2 -38
-9 -23 -6 17 -8 14 -12 -15 -5 -34 -5 -33 -6 8 -2 35 11 69 26 72 1 0 2 -19 1
-42z m718 0 c-3 -8 -6 -5 -6 6 -1 11 2 17 5 13 3 -3 4 -12 1 -19z m-791 -265
c-15 -28 -15 -28 -16 25 0 29 6 71 13 93 l12 40 3 -65 c2 -44 -2 -75 -12 -93z
m1651 115 c-3 -7 -5 -2 -5 12 0 14 2 19 5 13 2 -7 2 -19 0 -25z m2750 -205
c-1 -43 -3 -8 -3 77 0 85 2 120 3 78 2 -43 2 -113 0 -155z m280 195 c-3 -8 -6
-5 -6 6 -1 11 2 17 5 13 3 -3 4 -12 1 -19z m-3890 -20 c-3 -7 -5 -2 -5 12 0
14 2 19 5 13 2 -7 2 -19 0 -25z m-238 -70 c0 -46 -3 -57 -9 -42 -8 19 -3 104
6 104 2 0 4 -28 3 -62z m4128 30 c-3 -7 -5 -2 -5 12 0 14 2 19 5 13 2 -7 2
-19 0 -25z m-470 -195 c-1 -43 -3 -10 -3 72 0 83 2 118 3 78 2 -40 2 -107 0
-150z m-887 -351 c-11 -20 -14 467 -2 519 4 19 8 -85 10 -234 1 -163 -2 -275
-8 -285z m402 173 c-8 -59 -10 -41 -11 121 0 105 2 194 7 198 11 11 14 -238 4
-319z m-4347 219 c-9 -90 -25 -91 -25 0 0 50 4 76 13 79 18 6 20 -7 12 -79z
m801 -46 c-15 -22 -16 -21 -16 25 0 26 5 47 10 47 6 0 10 6 9 13 -1 6 0 19 2
27 1 8 4 -9 6 -38 3 -36 -1 -59 -11 -74z m371 -15 c-2 -16 -4 -3 -4 27 0 30 2
43 4 28 2 -16 2 -40 0 -55z m-620 -30 c-2 -16 -4 -3 -4 27 0 30 2 43 4 28 2
-16 2 -40 0 -55z m2781 -195 c-1 -156 -4 -228 -7 -178 -6 90 -2 440 5 440 2 0
3 -118 2 -262z m-3398 12 c0 -88 -4 -160 -8 -160 -8 0 -14 76 -15 175 0 43 13
145 19 145 2 0 4 -72 4 -160z m3459 143 c0 -5 -4 -17 -9 -28 -8 -18 -9 -17 -9
8 -1 15 4 27 9 27 6 0 10 -3 9 -7z m-2642 -25 c-3 -8 -6 -5 -6 6 -1 11 2 17 5
13 3 -3 4 -12 1 -19z m-1801 -119 c-4 -28 -10 -58 -15 -67 -7 -13 -10 -11 -16
7 -11 36 3 111 22 111 12 0 14 -9 9 -51z m-76 14 c0 -20 -3 -24 -11 -16 -7 7
-9 19 -6 27 10 24 17 19 17 -11z m4087 -25 c-3 -7 -5 -2 -5 12 0 14 2 19 5 13
2 -7 2 -19 0 -25z m53 -41 c-7 -17 -9 -10 -9 28 1 43 2 46 9 22 5 -16 5 -38 0
-50z m-160 -22 l-7 -50 -2 60 c0 34 3 55 8 50 4 -6 5 -32 1 -60z m-4194 -53
c-15 -15 -16 -15 -16 4 0 28 24 52 28 28 2 -9 -3 -24 -12 -32z m4144 -112 c0
-93 -4 -150 -10 -150 -6 0 -10 49 -10 128 0 115 6 172 16 172 2 0 4 -67 4
-150z m-3928 -28 c-4 -32 -8 -40 -17 -32 -14 12 -16 120 -3 120 4 0 9 19 10
43 1 33 2 29 8 -23 3 -36 4 -84 2 -108z m-686 126 c13 -21 6 -310 -9 -353
l-14 -40 -6 50 c-5 38 -3 338 2 353 3 7 21 0 27 -10z m4231 -30 c-3 -7 -5 -2
-5 12 0 14 2 19 5 13 2 -7 2 -19 0 -25z m-4297 2 c-23 -23 -40 -26 -40 -7 0
20 10 27 37 27 l23 0 -20 -20z m4237 -17 c-3 -10 -5 -4 -5 12 0 17 2 24 5 18
2 -7 2 -21 0 -30z m-56 -60 c-8 -14 -10 -8 -11 28 0 25 3 49 8 53 11 12 14
-62 3 -81z m166 -65 c-2 -29 -3 -6 -3 52 0 58 1 81 3 53 2 -29 2 -77 0 -105z
m-4218 83 c-1 -25 -4 -36 -6 -23 -2 12 -9 20 -14 17 -5 -4 -9 7 -9 23 0 19 5
29 15 29 11 0 15 -11 14 -46z m352 34 c5 4 6 -19 2 -52 -4 -32 -5 -89 -4 -128
7 -140 7 -140 -9 -140 -13 0 -15 24 -18 145 -3 134 4 213 15 182 3 -6 9 -10
14 -7z m-1291 -22 c-1 -24 -2 -26 -11 -10 -5 9 -7 22 -4 27 10 17 15 11 15
-17z m670 -8 c6 -19 8 -40 4 -47 -4 -7 -10 -28 -13 -47 -8 -49 -28 -50 -36 -2
-9 52 3 131 20 131 8 0 19 -16 25 -35z m-1111 -4 c11 -7 13 -25 8 -86 -7 -73
-25 -114 -46 -101 -4 3 -11 -34 -15 -82 -9 -106 -22 -162 -40 -162 -14 0 -16
-7 -37 -149 -8 -54 -18 -90 -30 -102 -9 -9 -20 -15 -23 -12 -3 4 -6 -9 -6 -28
-1 -43 -20 -69 -53 -69 -14 0 -29 -4 -32 -10 -3 -5 -17 -10 -31 -10 -14 0 -36
-7 -49 -16 -13 -9 -28 -13 -33 -10 -6 3 -24 1 -41 -5 -17 -6 -39 -8 -49 -3 -9
4 -24 8 -32 8 -23 2 -40 47 -40 112 0 47 4 65 21 82 11 12 17 27 14 32 -3 6
-2 10 4 10 5 0 15 26 21 58 14 65 24 82 51 82 13 0 19 7 19 21 0 32 19 59 40
59 17 0 20 -7 20 -40 0 -49 -15 -83 -43 -95 -18 -8 -23 -22 -31 -83 -4 -41 -5
-98 -1 -128 l6 -54 42 6 c46 7 116 49 124 74 14 48 35 81 47 77 9 -4 16 5 20
26 13 63 26 213 21 242 -5 29 -7 30 -45 27 -26 -3 -40 0 -40 7 0 7 -12 0 -27
-13 -30 -28 -47 -22 -41 15 2 19 9 24 33 23 17 0 35 5 40 12 6 6 24 14 40 17
98 18 99 18 114 80 7 31 17 54 22 52 11 -7 39 48 39 77 0 30 11 68 19 68 3 0
12 -4 20 -9z m6508 -58 c-3 -10 -5 -2 -5 17 0 19 2 27 5 18 2 -10 2 -26 0 -35z
m-1127 -124 c0 -97 -4 -148 -10 -144 -18 11 -12 295 6 295 2 0 4 -68 4 -151z
m-403 89 c-3 -8 -6 -5 -6 6 -1 11 2 17 5 13 3 -3 4 -12 1 -19z m-3046 -201
c-17 -17 -23 -2 -28 80 -5 68 -3 82 13 98 19 18 19 17 22 -75 2 -54 -1 -97 -7
-103z m-891 97 c0 -94 -16 -177 -34 -171 -7 2 -11 36 -11 93 0 108 11 164 30
164 12 0 15 -17 15 -86z m635 33 c0 -23 -4 -48 -9 -56 -15 -24 -27 12 -20 62
8 57 29 53 29 -6z m4462 6 c-3 -10 -5 -2 -5 17 0 19 2 27 5 18 2 -10 2 -26 0
-35z m-650 0 c-3 -10 -5 -4 -5 12 0 17 2 24 5 18 2 -7 2 -21 0 -30z m490 -45
c-2 -18 -4 -6 -4 27 0 33 2 48 4 33 2 -15 2 -42 0 -60z m-5599 -5 c3 -70 -9
-123 -28 -123 -5 0 -10 10 -10 22 0 46 -9 9 -19 -77 -21 -177 -20 -173 -46
-179 -20 -5 -25 -13 -25 -40 0 -48 -9 -66 -32 -66 -17 0 -19 6 -17 56 2 33 8
61 16 68 8 6 20 16 27 23 8 7 16 48 20 107 6 93 21 150 36 141 8 -5 40 72 40
97 0 27 12 49 24 45 6 -2 12 -33 14 -74z m4437 14 c-1 -18 -2 -108 -3 -200 -1
-109 -6 -166 -12 -162 -6 4 -10 79 -10 193 0 185 7 255 20 218 3 -9 5 -32 5
-49z m55 16 c0 -27 -3 -34 -11 -26 -7 7 -9 23 -5 37 9 37 16 32 16 -11z m569
30 c0 -5 -4 -17 -9 -28 -8 -18 -9 -17 -9 8 -1 15 4 27 9 27 6 0 10 -3 9 -7z
m648 -25 c-3 -8 -6 -5 -6 6 -1 11 2 17 5 13 3 -3 4 -12 1 -19z m-6839 0 c10
-13 9 -46 -3 -145 -6 -48 -22 -70 -47 -65 -5 1 -8 -10 -9 -25 0 -16 -4 -68 -8
-116 -7 -79 -11 -91 -34 -111 -24 -21 -28 -34 -38 -127 -10 -100 -29 -156 -49
-144 -6 4 -10 -4 -10 -17 0 -13 -7 -33 -15 -45 -14 -19 -31 -25 -113 -40 -18
-3 -35 -9 -38 -14 -3 -5 -21 -9 -40 -9 -19 0 -43 -5 -53 -11 -14 -9 -28 -9
-62 2 -43 14 -44 15 -50 64 -7 61 6 178 20 183 6 2 11 10 11 17 0 7 7 15 15
19 10 3 15 19 15 45 0 38 19 71 41 71 5 0 18 20 29 45 20 47 54 62 67 29 10
-26 -18 -117 -43 -140 -27 -25 -37 -80 -32 -179 3 -64 5 -70 23 -67 11 2 30 3
43 3 32 -1 90 48 103 87 6 17 26 54 44 81 33 48 34 52 37 163 3 96 1 112 -12
109 -8 -2 -31 -6 -50 -9 -19 -3 -45 -11 -57 -19 -25 -17 -43 -10 -43 17 0 34
12 50 39 50 14 1 37 7 50 14 13 7 32 11 41 9 10 -3 21 0 24 6 4 6 22 11 40 11
36 0 46 15 46 71 0 14 11 42 24 62 20 30 39 74 52 125 2 6 10 12 17 12 8 0 19
-6 25 -12z m6779 -30 c-3 -8 -6 -5 -6 6 -1 11 2 17 5 13 3 -3 4 -12 1 -19z
m-4157 -27 c0 -11 -4 -23 -10 -26 -6 -4 -10 5 -10 19 0 14 5 26 10 26 6 0 10
-9 10 -19z m-70 -16 c0 -8 -7 -15 -16 -15 -14 0 -14 3 -4 15 7 8 14 15 16 15
2 0 4 -7 4 -15z m2597 -7 c-3 -8 -6 -5 -6 6 -1 11 2 17 5 13 3 -3 4 -12 1 -19z
m-60 -25 c-3 -10 -5 -4 -5 12 0 17 2 24 5 18 2 -7 2 -21 0 -30z m1260 -40 c-3
-10 -5 -2 -5 17 0 19 2 27 5 18 2 -10 2 -26 0 -35z m-1367 -176 c0 -202 -5
-252 -21 -241 -10 6 -12 358 -3 416 14 86 24 14 24 -175z m-2984 107 c-3 -8
-13 -14 -22 -14 -13 0 -15 6 -9 28 4 15 7 34 7 42 -1 40 12 41 20 2 5 -24 7
-50 4 -58z m4185 18 c-9 -25 -9 -24 -10 18 0 36 2 41 10 27 7 -12 7 -27 0 -45z
m56 11 c-3 -10 -5 -4 -5 12 0 17 2 24 5 18 2 -7 2 -21 0 -30z m56 22 c-3 -9
-8 -14 -10 -11 -3 3 -2 9 2 15 9 16 15 13 8 -4z m-3667 -22 c-3 -8 -6 -19 -6
-24 0 -5 -7 -9 -15 -9 -16 0 -19 17 -9 44 3 8 12 12 20 9 9 -3 13 -12 10 -20z
m2401 -15 c-3 -8 -6 -5 -6 6 -1 11 2 17 5 13 3 -3 4 -12 1 -19z m-3311 -40 c5
-41 -3 -68 -22 -68 -17 0 -19 61 -3 92 13 25 20 18 25 -24z m2821 -40 c-3 -7
-5 -2 -5 12 0 14 2 19 5 13 2 -7 2 -19 0 -25z m-112 -9 c-6 -45 -15 -49 -15
-6 0 21 4 37 10 37 5 0 7 -14 5 -31z m-1879 -16 c-11 -11 -17 4 -9 23 7 18 8
18 11 1 2 -10 1 -21 -2 -24z m2064 -138 c0 -103 -4 -165 -10 -165 -6 0 -10 56
-10 149 0 134 4 181 16 181 2 0 4 -74 4 -165z m-2120 124 c0 -5 -7 -9 -15 -9
-9 0 -15 9 -15 21 0 18 2 19 15 9 8 -7 15 -16 15 -21z m-84 -26 c-13 -14 -25
9 -13 28 12 20 12 20 15 -1 2 -12 1 -24 -2 -27z m1964 -163 c0 -139 -6 -184
-21 -174 -10 6 -12 276 -2 312 13 51 23 -6 23 -138z m-6060 131 c0 -5 3 -16 6
-24 8 -21 -25 -51 -41 -37 -10 9 -14 0 -20 -39 -5 -35 -16 -60 -40 -88 -19
-22 -36 -56 -41 -79 -8 -48 -22 -76 -33 -69 -14 8 -29 -17 -36 -59 -4 -21 -20
-53 -35 -70 -16 -17 -36 -55 -45 -84 -10 -29 -23 -59 -30 -66 -19 -19 -42 -67
-50 -106 -4 -20 -21 -48 -41 -67 -24 -23 -34 -41 -34 -62 0 -20 -10 -39 -29
-58 -16 -15 -39 -56 -51 -90 -16 -45 -28 -63 -40 -63 -10 0 -23 -7 -30 -15
-19 -23 -49 -18 -60 9 -14 37 -1 66 31 73 16 3 29 6 29 7 0 1 5 29 11 62 12
65 23 84 49 84 22 0 30 19 30 69 0 38 17 61 51 74 11 4 18 23 23 64 8 71 17
88 45 80 12 -3 22 -2 22 1 1 4 3 23 5 42 6 50 23 88 44 95 15 5 23 24 50 115
5 19 13 25 33 24 25 -1 27 2 27 38 0 45 22 93 49 108 11 5 24 31 32 61 7 28
21 55 31 60 10 5 18 7 18 4 0 -3 8 -1 18 4 21 13 52 14 52 2z m5607 -63 c-3
-7 -5 -2 -5 12 0 14 2 19 5 13 2 -7 2 -19 0 -25z m-57 2 c0 -11 -4 -20 -9 -20
-5 0 -7 9 -4 20 3 11 7 20 9 20 2 0 4 -9 4 -20z m117 -12 c-3 -7 -5 -2 -5 12
0 14 2 19 5 13 2 -7 2 -19 0 -25z m-4899 3 c9 -5 24 -12 34 -15 10 -3 19 -21
23 -46 8 -45 -2 -150 -13 -150 -15 0 -42 -82 -42 -128 0 -61 -16 -118 -38
-134 -9 -7 -22 -26 -27 -42 -6 -16 -17 -32 -25 -36 -20 -11 -94 -32 -117 -35
-10 -1 -25 -4 -33 -7 -36 -15 -158 -35 -182 -30 -21 4 -27 21 -35 93 -9 85 2
126 37 144 19 10 30 23 30 36 0 37 19 59 50 59 25 0 30 4 36 35 3 19 11 39 18
43 22 14 81 34 101 33 11 0 30 6 42 14 12 8 34 15 48 15 21 0 25 4 25 31 l0
31 -47 -5 c-27 -3 -75 -10 -107 -17 -75 -14 -88 -9 -84 32 3 30 6 33 38 34 18
1 36 6 38 13 2 6 21 11 42 11 21 0 42 5 45 11 4 6 19 7 35 4 16 -3 31 -2 35 4
8 13 49 14 73 2z m4713 -88 c-8 -14 -10 -7 -11 33 0 28 3 54 8 58 11 12 14
-72 3 -91z m-6305 -27 c9 -36 1 -60 -21 -65 -26 -5 -44 -30 -45 -63 0 -15 -13
-42 -28 -60 -28 -33 -45 -69 -56 -120 -4 -18 -15 -30 -30 -34 -19 -4 -27 -16
-36 -55 -7 -27 -24 -62 -40 -79 -17 -18 -33 -51 -40 -82 -7 -30 -24 -66 -39
-83 -15 -16 -33 -52 -40 -80 -13 -52 -35 -85 -58 -85 -7 0 -13 -11 -13 -24 0
-34 -16 -74 -44 -107 -13 -16 -32 -51 -41 -79 -17 -50 -32 -65 -85 -80 -38
-11 -60 5 -60 44 0 37 17 63 45 68 20 3 26 18 42 93 6 32 15 43 41 54 29 13
32 19 32 57 0 42 19 74 44 74 7 0 18 27 25 63 20 97 19 95 46 92 21 -2 25 3
30 34 11 68 14 77 35 101 11 13 20 28 20 34 0 6 4 5 9 -2 6 -10 10 -6 15 15
24 100 25 101 51 98 22 -2 25 1 25 32 0 39 28 99 59 127 12 11 21 24 21 30 0
6 5 28 11 49 8 32 14 37 39 37 16 0 32 5 35 10 12 20 44 11 51 -14z m6253
-122 c1 -123 -7 -184 -20 -162 -10 16 -12 195 -2 264 10 77 21 26 22 -102z
m811 22 c0 -8 -4 -18 -10 -21 -5 -3 -10 3 -10 14 0 12 5 21 10 21 6 0 10 -6
10 -14z m-120 -29 c0 -12 -5 -29 -10 -37 -7 -11 -10 -3 -10 28 0 26 4 41 10
37 6 -3 10 -16 10 -28z m52 -9 c-9 -9 -12 -7 -12 12 0 19 3 21 12 12 9 -9 9
-15 0 -24z m-1872 -98 c0 -16 -4 -30 -10 -30 -5 0 -10 14 -10 30 0 17 5 30 10
30 6 0 10 -13 10 -30z m1380 -8 c0 -9 -5 -24 -10 -32 -7 -11 -10 -5 -10 23 0
23 4 36 10 32 6 -3 10 -14 10 -23z m-1446 9 c8 -12 -3 -41 -15 -41 -5 0 -9 11
-9 25 0 25 14 34 24 16z m139 -148 c4 -75 7 -170 7 -210 0 -66 -2 -74 -17 -71
-16 3 -18 21 -21 188 -1 102 0 195 3 208 13 52 22 14 28 -115z m-269 -123 c6
-217 2 -261 -23 -246 -12 8 -16 467 -4 480 17 17 22 -24 27 -234z m1386 200
c0 -22 -4 -40 -10 -40 -5 0 -10 18 -10 40 0 22 5 40 10 40 6 0 10 -18 10 -40z
m117 3 c-3 -10 -5 -4 -5 12 0 17 2 24 5 18 2 -7 2 -21 0 -30z m-1447 -18 c0
-19 -4 -35 -10 -35 -11 0 -14 53 -3 63 11 12 13 8 13 -28z m-548 -103 c3 -9 1
-26 -3 -37 -4 -11 -8 -14 -8 -7 -1 7 -5 10 -11 7 -6 -4 -10 7 -10 24 0 34 24
44 32 13z m-85 -6 c-3 -8 -1 -17 6 -19 7 -2 9 -8 4 -12 -11 -13 -28 10 -21 28
3 9 8 17 11 17 3 0 3 -6 0 -14z m-57 -48 c0 -28 -3 -38 -9 -29 -7 11 -9 11
-14 0 -3 -8 -6 5 -6 29 -1 31 3 42 14 42 11 0 15 -11 15 -42z m214 10 c3 -13
6 -92 6 -175 0 -124 -3 -153 -14 -153 -8 0 -17 7 -20 16 -8 21 -8 319 1 327
12 12 21 7 27 -15z m-1007 -44 c1 -5 -2 -16 -7 -24 -9 -13 -11 -13 -19 -1 -5
8 -7 20 -4 28 6 15 25 13 30 -3z m733 -195 c0 -163 -8 -205 -31 -168 -10 16
-12 342 -2 352 3 4 12 2 20 -4 10 -9 13 -51 13 -180z m-718 -153 c1 -99 2
-203 3 -229 1 -58 -7 -76 -28 -59 -11 9 -15 61 -20 239 -4 126 -4 239 0 252
l6 24 19 -22 c16 -20 18 -45 20 -205z m-748 32 c10 -220 15 -465 9 -487 -6
-24 -28 -28 -36 -8 -3 8 -8 97 -11 198 -4 101 -9 236 -12 300 -5 131 -1 154
26 139 15 -8 19 -29 24 -142z m144 -1 c2 -19 -1 -27 -12 -27 -20 0 -29 16 -21
41 9 27 29 19 33 -14z m-70 -17 c4 -36 -7 -53 -29 -45 -15 5 -24 58 -14 75 13
21 40 2 43 -30z m1600 -13 c2 -19 -1 -27 -12 -27 -11 0 -16 10 -16 31 0 38 24
35 28 -4z m-1752 -23 c4 -17 2 -29 -7 -35 -24 -15 -29 -10 -29 26 0 42 26 49
36 9z m1602 -35 c-18 -12 -24 27 -6 48 11 15 13 13 16 -12 2 -16 -2 -31 -10
-36z m78 40 c3 -6 2 -15 -4 -21 -6 -6 -12 -6 -16 1 -4 6 -1 11 6 11 9 0 9 3
-2 10 -9 6 -10 10 -3 10 6 0 15 -5 19 -11z m-2148 -101 c20 -20 15 -58 -7 -58
-20 0 -30 23 -23 53 5 20 13 22 30 5z m86 -30 c11 -44 1 -89 -18 -82 -21 8
-27 33 -20 81 8 52 25 52 38 1z m-157 -8 c14 -28 9 -40 -18 -40 -15 0 -19 7
-19 36 0 40 17 42 37 4z m-79 -2 c18 -18 16 -133 -3 -148 -25 -21 -35 -1 -35
74 0 85 9 103 38 74z m-57 -282 c4 -94 4 -174 2 -178 -7 -12 -31 -9 -39 4 -12
19 -23 341 -12 361 8 16 10 16 26 0 14 -14 18 -45 23 -187z m-563 72 c-2 -29
-8 -53 -15 -55 -16 -6 -37 69 -29 101 6 23 9 25 27 16 17 -9 20 -19 17 -62z
m72 52 c13 -25 29 -240 30 -397 0 -93 -3 -113 -15 -113 -8 0 -19 9 -25 20 -12
23 -33 441 -24 483 7 32 19 35 34 7z m-148 -34 c13 -29 5 -56 -16 -56 -20 0
-39 36 -31 60 9 27 33 25 47 -4z m-168 -28 c10 -17 17 -86 25 -261 5 -130 8
-244 5 -252 -9 -22 -33 -18 -43 8 -11 29 -34 488 -25 510 8 23 21 21 38 -5z
m81 12 c22 -35 10 -180 -14 -180 -12 0 -33 102 -27 130 2 14 5 33 5 43 1 18
26 23 36 7z m1563 -73 c3 -33 1 -38 -15 -35 -13 2 -19 14 -21 41 -3 33 -1 38
15 35 13 -2 19 -14 21 -41z m76 27 c8 -20 -1 -34 -20 -34 -8 0 -14 10 -14 25
0 28 24 34 34 9z m-1005 -63 c-1 -17 -3 -20 -6 -8 -2 9 -9 17 -14 17 -5 0 -9
4 -9 8 0 5 7 9 15 9 10 0 15 -9 14 -26z m-2205 -10 c17 -18 30 -80 18 -82 -60
-10 -62 -9 -62 31 0 42 8 70 20 70 4 0 14 -8 24 -19z m84 7 c7 -7 12 -23 12
-36 0 -19 -5 -23 -22 -20 -23 3 -34 28 -24 54 7 17 18 18 34 2z m922 -12 c22
-28 45 -536 24 -543 -34 -12 -41 23 -54 275 -7 137 -10 257 -7 266 8 20 21 21
37 2z m1600 -60 c0 -37 -4 -56 -14 -59 -22 -9 -26 2 -26 70 0 61 1 63 20 53
16 -9 20 -21 20 -64z m-2683 38 c13 -21 17 -50 17 -141 1 -90 4 -116 16 -123
12 -8 16 -3 18 23 2 17 7 36 11 40 11 11 51 -40 51 -63 0 -33 -44 -51 -62 -25
-16 23 -28 -57 -28 -191 0 -79 -4 -144 -9 -144 -12 0 -21 51 -21 118 0 31 -4
69 -10 86 -5 17 -12 45 -16 61 -15 68 -16 -10 -4 -223 13 -238 10 -263 -29
-228 -22 20 -29 55 -37 207 -4 63 -9 141 -13 173 -6 56 -7 59 -34 60 -16 1
-32 8 -37 16 -11 17 -13 83 -4 93 8 7 46 -11 56 -27 4 -6 8 35 8 90 0 115 8
166 24 161 6 -2 16 -19 22 -37 19 -58 34 -48 34 23 0 84 15 100 47 51z m2447
-41 c12 -43 16 -109 7 -123 -9 -13 -12 -13 -25 0 -15 15 -27 103 -18 128 6 18
30 15 36 -5z m-1661 -282 c6 -132 11 -245 9 -251 -6 -17 -31 -11 -42 9 -20 39
-46 481 -29 512 10 20 11 20 30 -4 16 -22 20 -55 32 -266z m1825 230 c4 -28
-17 -45 -35 -29 -14 11 -17 40 -6 52 14 14 38 0 41 -23z m-84 -2 c18 -26 11
-49 -15 -49 -15 0 -19 7 -19 35 0 40 12 45 34 14z m-1684 -71 c0 -19 -2 -20
-10 -8 -13 19 -13 30 0 30 6 0 10 -10 10 -22z m36 -356 c6 -58 5 -62 -13 -62
-34 0 -45 25 -44 97 0 37 4 76 7 86 10 31 41 -45 50 -121z m143 129 c9 -6 14
-30 15 -73 1 -57 -1 -63 -19 -63 -18 0 -20 8 -23 73 -3 72 0 80 27 63z m-69
-100 c12 -24 13 -41 1 -60 -12 -18 -51 3 -51 29 0 48 30 67 50 31z m-921 -203
l-1 -53 -10 38 c-6 20 -7 44 -4 52 10 28 16 15 15 -37z"/>
<path d="M1021 18814 c0 -11 3 -14 6 -6 3 7 2 16 -1 19 -3 4 -6 -2 -5 -13z"/>
<path d="M5475 7902 c-22 -1 -50 -8 -62 -14 -12 -6 -29 -8 -37 -5 -10 4 -20
-1 -26 -13 -11 -21 -13 -326 -2 -350 10 -22 30 -22 37 0 10 31 35 25 35 -9 0
-17 5 -33 10 -36 6 -3 10 0 10 8 0 16 47 40 61 31 5 -3 25 11 44 31 l34 37 -2
151 -2 151 -30 11 c-16 6 -48 9 -70 7z"/>
<path d="M8211 6944 c0 -11 3 -14 6 -6 3 7 2 16 -1 19 -3 4 -6 -2 -5 -13z"/>
<path d="M8892 3810 c0 -19 2 -27 5 -17 2 9 2 25 0 35 -3 9 -5 1 -5 -18z"/>
<path d="M9071 3624 c0 -11 3 -14 6 -6 3 7 2 16 -1 19 -3 4 -6 -2 -5 -13z"/>
<path d="M3295 2241 c-11 -5 -25 -6 -32 -4 -7 3 -17 -13 -24 -38 -10 -32 -20
-45 -45 -55 -28 -12 -32 -18 -36 -65 -8 -80 -4 -86 53 -84 34 1 53 7 62 19 7
9 21 18 31 20 15 2 25 22 42 81 13 42 31 83 40 89 14 11 13 14 -10 29 -27 18
-49 20 -81 8z"/>
<path d="M1478 884 c-5 -4 -8 -30 -7 -58 l1 -51 9 40 c11 44 8 81 -3 69z"/>
</g>
</svg>
